<?xml version="1.0" encoding="UTF-8"?>
<svg version="1.1" xmlns="http://www.w3.org/2000/svg" width="1300" height="1300">
<path d="M0 0 C429 0 858 0 1300 0 C1300 429 1300 858 1300 1300 C871 1300 442 1300 0 1300 C0 871 0 442 0 0 Z " fill="#FEFEFE" transform="translate(0,0)"/>
<path d="M0 0 C5.84677227 1.67050636 11.01864558 4.43338998 16.375 7.25 C17.38304687 7.77867676 18.39109375 8.30735352 19.4296875 8.85205078 C30.82576301 14.88682282 41.92733847 21.39560807 53 28 C53.93779297 28.55381348 54.87558594 29.10762695 55.84179688 29.67822266 C89.41417802 49.51591542 121.86091777 72.11493056 151.38623047 97.61279297 C153.12523307 99.10765118 154.87603472 100.58784081 156.62890625 102.06640625 C162.32433671 106.88382253 167.8978839 111.70231954 173.07836914 117.08105469 C174.89936078 118.89950143 176.77942278 120.56375518 178.7421875 122.2265625 C183.01215095 125.93784374 186.89835983 129.92340972 190.75 134.0625 C191.43811768 134.79839355 192.12623535 135.53428711 192.83520508 136.29248047 C197.20622776 140.99537053 201.49819323 145.75950334 205.6875 150.625 C206.38987793 151.43916382 206.38987793 151.43916382 207.10644531 152.26977539 C208.92408917 154.41095986 210.67545235 156.48114455 212.16748047 158.86645508 C214.74288981 162.96824998 216.64140639 164.791759 221.56713867 165.98583984 C222.28748291 166.1348877 223.00782715 166.28393555 223.75 166.4375 C225.36722212 166.82915654 226.9830422 167.22663309 228.59765625 167.62890625 C229.46664551 167.8417627 230.33563477 168.05461914 231.23095703 168.27392578 C236.28160604 169.59826277 241.22563057 171.25457053 246.1875 172.875 C248.31757678 173.55770226 250.44778604 174.23999132 252.578125 174.921875 C256.85004382 176.29564099 261.10707311 177.70741255 265.359375 179.140625 C267.38519865 179.80275073 269.41123204 180.4642352 271.4375 181.125 C272.35362061 181.44452637 273.26974121 181.76405273 274.21362305 182.09326172 C280.83737563 184.21700049 285.38325536 183.98119141 292 182 C293.15830322 181.65904297 294.31660645 181.31808594 295.51000977 180.96679688 C298.83826715 179.96621917 302.15080757 178.92034971 305.46057129 177.86038208 C309.01840503 176.72142691 312.58195018 175.60056008 316.14453125 174.4765625 C316.83602264 174.25784988 317.52751404 174.03913727 318.23995972 173.813797 C328.98565369 170.41782009 339.7133985 167.07779535 350.77734375 164.87109375 C353.11730426 164.21421191 353.11730426 164.21421191 354.07421875 162.21875 C354.37972656 161.4865625 354.68523437 160.754375 355 160 C360.47434107 152.64768991 366.7161243 145.93309128 372.97265625 139.25 C374.90240761 137.18866077 376.80693169 135.10976617 378.68359375 133 C386.00172939 124.82282615 393.89210011 117.38755568 402 110 C402.92167969 109.15179688 403.84335937 108.30359375 404.79296875 107.4296875 C409.70058382 102.95119617 414.74225347 98.67491164 419.91015625 94.5 C422.15960665 92.67996428 424.39473792 90.84781118 426.62109375 89 C435.74576418 81.45643353 445.13611821 74.39660585 454.80029297 67.56005859 C456.87579565 66.08808721 458.94114106 64.60302774 461.00390625 63.11328125 C480.01887749 49.44466349 499.76949499 36.78689254 520 25 C520.82209961 24.51756836 521.64419922 24.03513672 522.49121094 23.53808594 C533.06989089 17.34101118 543.78706282 11.41918377 554.625 5.6875 C555.71063232 5.10556885 556.79626465 4.5236377 557.91479492 3.92407227 C558.92517822 3.39612061 559.93556152 2.86816895 560.9765625 2.32421875 C561.87455566 1.85072998 562.77254883 1.37724121 563.69775391 0.8894043 C566 0 566 0 569 1 C570.42285156 3.32226563 570.42285156 3.32226563 571.890625 6.40625 C572.43219238 7.53490479 572.97375977 8.66355957 573.53173828 9.82641602 C574.10516289 11.05063008 574.67790381 12.27516458 575.25 13.5 C575.83678156 14.73964176 576.42385931 15.97914336 577.01123047 17.21850586 C587.97942066 40.47740984 587.97942066 40.47740984 591.2734375 52.5925293 C591.99945135 54.99818204 592.89321094 57.24492447 593.87109375 59.55859375 C596.13079783 65.14341568 597.79105593 70.8175124 599.375 76.625 C599.67245117 77.70313965 599.96990234 78.7812793 600.27636719 79.89208984 C603.37480925 91.2140803 606.29011646 102.57883231 609 114 C609.44472656 115.87171875 609.44472656 115.87171875 609.8984375 117.78125 C612.60294943 130.22782103 613.96492278 142.94928137 615.56542969 155.57568359 C616.00433984 159.03419697 616.45633182 162.49079216 616.91650391 165.9465332 C619.22984059 185.07636872 619.24101856 204.31953613 619.25 223.5625 C619.25101212 225.52245407 619.25101212 225.52245407 619.25204468 227.52200317 C619.23538803 247.88468292 618.55137952 267.79488228 616 288 C615.83075884 289.42921188 615.66282809 290.85857944 615.49609375 292.28808594 C611.45904446 326.63427046 604.99331856 361.76422531 593.56640625 394.4765625 C592.42338613 399.56891421 594.41472729 403.0793123 597.10546875 407.33203125 C597.75209473 408.36529541 598.3987207 409.39855957 599.06494141 410.46313477 C599.76538574 411.56842529 600.46583008 412.67371582 601.1875 413.8125 C602.66219706 416.16899049 604.13018855 418.52962744 605.59765625 420.890625 C605.96977234 421.48815079 606.34188843 422.08567657 606.72528076 422.7013092 C617.15697915 439.48816121 626.77563864 456.77959243 636.36572266 474.05615234 C637.92137448 476.85837071 639.48202325 479.65775952 641.04296875 482.45703125 C641.98745214 484.15859172 642.93148844 485.86040046 643.875 487.5625 C644.48057739 488.64772949 644.48057739 488.64772949 645.09838867 489.75488281 C648.90377517 496.65248278 652.38081785 503.71252949 655.88598633 510.76535034 C657.41222739 513.82690529 658.95214699 516.881483 660.49279785 519.93580627 C662.11048886 523.1434895 663.72360394 526.35346559 665.33666992 529.56347656 C666.15425192 531.18854495 666.97326424 532.81289453 667.79370117 534.43652344 C670.5721837 539.93713431 673.30745942 545.456822 676 551 C676.36567078 551.74507812 676.73134155 552.49015625 677.10809326 553.2578125 C678.14539843 555.39119934 679.15317004 557.53603629 680.15234375 559.6875 C680.45829971 560.31035889 680.76425568 560.93321777 681.07948303 561.57495117 C683.7786108 567.54799441 682.88334474 572.07525453 681.06030273 578.11132812 C680.68848877 579.07490234 680.3166748 580.03847656 679.93359375 581.03125 C679.53076172 582.08828125 679.12792969 583.1453125 678.71289062 584.234375 C678.29201172 585.31203125 677.87113281 586.3896875 677.4375 587.5 C677.01275391 588.60859375 676.58800781 589.7171875 676.15039062 590.859375 C675.10824037 593.5759914 674.05521013 596.28842972 673 599 C668.05 599 663.1 599 658 599 C657.71898437 600.27617188 657.43796875 601.55234375 657.1484375 602.8671875 C654.3843622 615.29823967 651.42203079 627.68248858 648.0859375 639.97265625 C646.74666244 644.90887736 645.4716538 649.86171626 644.1875 654.8125 C642.60820281 660.89094616 641.01590919 666.96520496 639.375 673.02734375 C639.09986572 674.0443335 638.82473145 675.06132324 638.54125977 676.10913086 C637.96771297 678.21913357 637.39001221 680.32801114 636.80834961 682.43579102 C635.24889283 688.14035199 633.78199568 693.85158346 632.47077942 699.61773682 C631.76002256 702.73234046 631.02241214 705.84038229 630.28433228 708.9486084 C629.93493408 710.45348112 629.598258 711.96137914 629.27597046 713.47229004 C626.90616987 724.5551192 622.89949305 731.98901437 615.35900879 740.45196533 C613.14326403 742.97590023 611.08297318 745.6158346 609 748.25 C606.70710221 751.09926269 605.05972649 752.96018234 602 755 C599.37109375 754.57421875 599.37109375 754.57421875 596.4375 753.6875 C594.98150391 753.26017578 594.98150391 753.26017578 593.49609375 752.82421875 C591 752 591 752 589 751 C588.77441406 751.53496094 588.54882812 752.06992187 588.31640625 752.62109375 C586.57351906 755.77070295 584.28785614 758.35991065 581.9375 761.0625 C580.93544131 762.22981968 579.93414971 763.39779826 578.93359375 764.56640625 C578.43585449 765.14664551 577.93811523 765.72688477 577.42529297 766.32470703 C575.41474314 768.6879124 573.45585357 771.09143529 571.5 773.5 C566.41710192 779.73851256 561.21818875 785.87467867 556 792 C555.50032715 792.58749023 555.0006543 793.17498047 554.48583984 793.78027344 C548.7441408 800.52727155 542.95814624 807.21986925 537.00390625 813.78125 C535.18688018 815.79308393 533.40055608 817.82660434 531.625 819.875 C527.78689934 824.27908785 523.8330886 828.57525004 519.875 832.87109375 C518.02994039 834.87424819 516.19923586 836.88775191 514.375 838.91015625 C508.53037191 845.37229713 502.47688291 851.56926095 496.28198242 857.6965332 C493.08383817 860.87160698 489.97742904 864.05811582 487.0625 867.5 C484.44071869 870.5948847 481.592678 873.1384188 478.5 875.75390625 C475.03145884 878.8701737 471.77864163 882.18601779 468.5 885.5 C464.10195633 889.93667948 459.71778861 894.30622495 454.94140625 898.33984375 C452.46555003 900.45702462 450.08338732 902.66781829 447.6875 904.875 C443.20337072 908.96437787 438.59732762 912.84619021 433.875 916.65625 C431.30646808 918.75016189 428.77968393 920.88170686 426.26269531 923.03662109 C419.360933 928.94036471 412.26921866 934.55555694 405 940 C404.28005859 940.54060059 403.56011719 941.08120117 402.81835938 941.63818359 C392.42426082 949.42505952 381.9455831 957.00590964 371 964 C370.22994629 964.49322754 369.45989258 964.98645508 368.66650391 965.49462891 C297.90208529 1010.59463379 297.90208529 1010.59463379 277 1006 C269.02289595 1003.43711956 261.52044847 999.65192419 254 996 C252.42750488 995.25363281 252.42750488 995.25363281 250.82324219 994.4921875 C215.72724082 977.81543997 183.31181584 956.23424145 153 932 C152.30390625 931.44425293 151.6078125 930.88850586 150.890625 930.31591797 C137.87841766 919.89942586 125.20002828 909.16413291 113.01171875 897.79296875 C110.40014979 895.35918072 107.73911869 892.98723607 105.0625 890.625 C100.19943388 886.27759342 95.6303012 881.66268187 91.046875 877.02539062 C87.44867479 873.39951195 83.76138874 869.97931024 79.85498047 866.68505859 C78.00222236 865.00201878 76.42267587 863.2472025 74.80859375 861.3359375 C70.9170684 856.83386567 66.74373081 852.66781434 62.5 848.5 C57.69459866 843.78056291 53.05052722 839.01385621 48.65722656 833.90673828 C46.06304698 830.92197951 43.33827608 828.06355603 40.625 825.1875 C35.94211797 820.18876768 31.52467204 815.06012149 27.2421875 809.7109375 C24.76092267 806.71094135 22.15113463 803.84868089 19.5 801 C15.26593182 796.44416307 11.27067582 791.74727905 7.37109375 786.90234375 C4.68170171 783.61038612 1.90867652 780.3996052 -0.875 777.1875 C-5.56697557 771.76367252 -10.05963528 766.21216477 -14.43505859 760.5300293 C-16.14187316 758.3206203 -17.81048594 756.18542088 -19.80859375 754.23046875 C-21 753 -21 753 -21 751 C-22.88802083 751.74869792 -24.77604167 752.49739583 -26.6640625 753.24609375 C-29.52645048 754.16990793 -31.98297763 754.83787953 -35 755 C-38.11699393 752.78269705 -40.26260424 749.71219497 -42.61962891 746.71484375 C-44.12564819 744.84390646 -45.70473913 743.05154662 -47.29296875 741.25 C-55.6242045 731.49149605 -59.17008059 722.90234872 -61.52148438 710.38330078 C-62.22896614 706.85960843 -63.2346146 703.44498327 -64.25 700 C-67.35999261 689.11694484 -69.99973335 678.10681409 -72.70214844 667.1171875 C-74.64379773 659.24783487 -76.70752995 651.44216766 -78.97094727 643.65771484 C-80.81939501 637.08750271 -82.44910674 630.46172366 -84.09204102 623.83764648 C-84.69465898 621.40864394 -85.30116686 618.98063612 -85.90820312 616.55273438 C-86.297099 614.99224331 -86.68577899 613.43169842 -87.07421875 611.87109375 C-87.34295052 610.79449745 -87.34295052 610.79449745 -87.61711121 609.69615173 C-88.49796596 606.13912201 -89.28082948 602.59585262 -90 599 C-94.95 599 -99.9 599 -105 599 C-106.45932013 595.30681723 -107.90661405 591.61172908 -109.32739258 587.90380859 C-110.05039512 586.03134968 -110.79165615 584.16597377 -111.53320312 582.30078125 C-111.98759766 581.10839844 -112.44199219 579.91601562 -112.91015625 578.6875 C-113.54642944 577.05361328 -113.54642944 577.05361328 -114.19555664 575.38671875 C-115.96603541 567.93297627 -113.58836454 562.28909134 -110.2734375 555.7421875 C-109.8938237 554.96911758 -109.5142099 554.19604767 -109.12309265 553.39955139 C-107.88506811 550.88557593 -106.63044192 548.38031653 -105.375 545.875 C-104.50744628 544.12359153 -103.64083802 542.37171443 -102.77514648 540.61938477 C-101.02578423 537.08375904 -99.26931214 533.5518117 -97.50634766 530.02294922 C-95.26409451 525.53428012 -93.0414366 521.03622842 -90.82421875 516.53515625 C-84.03469706 502.77999971 -77.02265291 489.16910643 -69.54638672 475.77197266 C-67.87896835 472.78304494 -66.22266455 469.78809359 -64.56640625 466.79296875 C-57.72266537 454.45523523 -50.67540856 442.26688727 -43.34326172 430.21337891 C-42.06616123 428.10901813 -40.7983029 425.99947885 -39.53515625 423.88671875 C-39.15117676 423.24524902 -38.76719727 422.6037793 -38.37158203 421.94287109 C-37.63597779 420.70960512 -36.90375775 419.47431292 -36.17529297 418.23681641 C-34.41579787 415.26629318 -32.59815671 412.38911078 -30.59765625 409.57421875 C-25.73479333 402.7656907 -25.73479333 402.7656907 -25.1875 394.6875 C-25.73125971 392.77346584 -26.34089823 390.87744141 -27 389 C-27.73416061 386.73077629 -28.46273332 384.45974147 -29.1875 382.1875 C-29.50388428 381.21538574 -29.50388428 381.21538574 -29.82666016 380.22363281 C-35.84015174 361.28221202 -39.59942025 341.47433956 -42.63037109 321.86230469 C-42.93103789 319.91748403 -42.93103789 319.91748403 -44 318 C-44.41473244 315.38447071 -44.78464657 312.77816787 -45.12109375 310.15234375 C-45.22591568 309.34881973 -45.33073761 308.54529572 -45.43873596 307.71742249 C-45.66165182 305.99846414 -45.88261404 304.27925153 -46.10180664 302.55981445 C-46.42610222 300.0265353 -46.76040438 297.49473321 -47.09570312 294.96289062 C-50.14702689 271.52786276 -51.38213046 248.27416475 -51.31805801 224.64575195 C-51.31240903 222.52840092 -51.30959394 220.41105792 -51.30697632 218.29370117 C-51.26944445 197.40040638 -50.83481114 176.7324443 -48 156 C-47.86564545 154.99755249 -47.86564545 154.99755249 -47.72857666 153.97485352 C-45.49931337 137.38304909 -42.70025111 120.94030916 -38.66357422 104.68359375 C-37.95659789 101.82447535 -37.27640756 98.95969238 -36.59765625 96.09375 C-32.76585369 80.11892923 -28.5983042 64.08183817 -22 49 C-21.15737051 46.69087111 -20.32466703 44.37810467 -19.5 42.0625 C-16.81712703 34.74162037 -13.68161196 27.65029756 -10.4375 20.5625 C-9.97859375 19.55646729 -9.5196875 18.55043457 -9.046875 17.51391602 C-6.27660108 11.52438933 -3.30142141 5.7143077 0 0 Z " fill="#030201" transform="translate(366,147)"/>
<path d="M0 0 C3.39514204 1.30075579 6.58010393 2.76767182 9.7734375 4.50390625 C10.67280029 4.99246094 11.57216309 5.48101562 12.4987793 5.984375 C13.44793213 6.50515625 14.39708496 7.0259375 15.375 7.5625 C16.36089111 8.10261719 17.34678223 8.64273438 18.36254883 9.19921875 C26.36645585 13.60760281 34.23835262 18.17958784 42 23 C42.71687988 23.44279297 43.43375977 23.88558594 44.17236328 24.34179688 C67.67623557 38.89015 90.47526188 54.64440674 112 72 C112.94101562 72.75796875 113.88203125 73.5159375 114.8515625 74.296875 C117.5813472 76.51531674 120.29461986 78.75186721 123 81 C123.76328613 81.63373535 123.76328613 81.63373535 124.54199219 82.28027344 C132.00600768 88.49196779 139.2773597 94.8797031 146.3828125 101.50048828 C148.11083651 103.10277141 149.85161269 104.69042346 151.59375 106.27734375 C167.43172083 120.77573344 184.06824575 137.01834218 196 155 C196 155.66 196 156.32 196 157 C196.66 157 197.32 157 198 157 C197.43669469 161.26924062 196.42255275 164.71323829 194.59375 168.60546875 C194.10213379 169.66161377 193.61051758 170.71775879 193.10400391 171.8059082 C192.57468262 172.9218335 192.04536133 174.03775879 191.5 175.1875 C190.9539209 176.34789795 190.4078418 177.5082959 189.84521484 178.70385742 C188.74115127 181.04938562 187.63489313 183.39388216 186.52636719 185.73730469 C185.21383817 188.54290894 183.94163648 191.35989735 182.6953125 194.1953125 C177.12237013 206.73410709 169.86209614 217.78296719 162 229 C160.97495814 230.47895721 159.95020314 231.95811329 158.92578125 233.4375 C153.01004291 241.93126516 146.89565428 250.27722471 140.71875 258.58251953 C140.161875 259.33259277 139.605 260.08266602 139.03125 260.85546875 C138.29745117 261.84003052 138.29745117 261.84003052 137.54882812 262.84448242 C135.6283725 265.51719722 133.81380139 268.25410623 132 271 C136.28999368 266.73490138 140.57655737 262.46639432 144.86010742 258.19482422 C146.31492017 256.74501083 147.77063283 255.29609983 149.22729492 253.84814453 C151.33234551 251.75535357 153.43403619 249.65923626 155.53515625 247.5625 C156.17711441 246.92570313 156.81907257 246.28890625 157.48048401 245.6328125 C176.73410758 226.38153405 189.62238166 203.75401094 201.734375 179.60546875 C202.31840088 178.44974365 202.90242676 177.29401855 203.50415039 176.10327148 C204.60406715 173.91221177 205.6873783 171.71271548 206.75170898 169.50415039 C207.48369507 168.04029907 207.48369507 168.04029907 208.23046875 166.546875 C208.64707764 165.68932617 209.06368652 164.83177734 209.49291992 163.94824219 C211 162 211 162 213.38037109 161.16894531 C216.02887036 160.99813809 218.09484083 161.19124209 220.68359375 161.75 C221.59657227 161.94311768 222.50955078 162.13623535 223.45019531 162.33520508 C224.43600586 162.5545874 225.42181641 162.77396973 226.4375 163 C227.99162598 163.33197388 227.99162598 163.33197388 229.57714844 163.6706543 C235.68364565 164.99186677 241.76223159 166.41484574 247.83203125 167.89453125 C249.16151758 168.21558645 250.491026 168.5365502 251.82055664 168.85742188 C254.38319312 169.4764265 256.93846904 170.11444166 259.49389648 170.76367188 C273.95645057 174.28726531 285.55038759 172.59421885 299.75 169.25 C301.29400867 168.89728788 302.83827916 168.54571994 304.3828125 168.1953125 C310.43752737 166.81211918 316.48291489 165.40454477 322.49414062 163.84179688 C323.21345764 163.6559906 323.93277466 163.47018433 324.67388916 163.27874756 C326.63631602 162.76802756 328.5960945 162.24716166 330.55566406 161.72558594 C333.82345062 161.037192 336.67401755 160.85849596 340 161 C345.79528923 171.55967123 351.56893391 182.12465736 357.125 192.8125 C365.24085863 208.33629697 373.71906529 222.38741268 385.59375 235.34765625 C386.87512972 236.76008617 388.15117868 238.17817392 389.38500977 239.63232422 C395.19629312 246.45430441 401.58200488 252.69208805 407.9375 259 C409.11026009 260.16773374 410.28278798 261.33570074 411.45507812 262.50390625 C414.30071689 265.33863234 417.14947453 268.17018824 420 271 C416.67039819 265.91052617 413.28599048 260.95331548 409.5 256.1875 C402.62606081 247.39431844 396.32042807 238.19470907 390 229 C389.5143457 228.29488281 389.02869141 227.58976563 388.52832031 226.86328125 C387.21941945 224.9556777 385.91991722 223.04211669 384.625 221.125 C383.91601562 220.07570313 383.20703125 219.02640625 382.4765625 217.9453125 C376.04856107 207.92649647 370.59764787 197.48187963 365.63476562 186.67578125 C364.74252529 184.73373054 363.84075959 182.79632175 362.9375 180.859375 C354 161.61642773 354 161.61642773 354 157 C354.66 157 355.32 157 356 157 C356.23203125 156.47019531 356.4640625 155.94039062 356.703125 155.39453125 C358.40923715 152.24439044 360.54030122 149.49299323 362.75 146.6875 C363.46712158 145.77532715 363.46712158 145.77532715 364.19873047 144.84472656 C369.58623668 138.10560886 375.50626563 131.89349848 381.45166016 125.64990234 C383.46473547 123.50478046 385.38685426 121.286118 387.3125 119.0625 C394.0281357 111.54349853 401.60070283 104.83276585 409 98 C410.05208637 97.02213869 411.10417008 96.0442745 412.15625 95.06640625 C417.27854576 90.3488896 422.52350013 85.83454805 427.9453125 81.46484375 C430.1831158 79.65914825 432.40481899 77.84020688 434.6171875 76.00390625 C443.73431921 68.46518084 453.11725124 61.40938603 462.77392578 54.57763672 C464.92737362 53.0514709 467.07202634 51.51369952 469.21484375 49.97265625 C492.86926715 33.0230518 517.72647566 17.80194142 543.31054688 3.94726562 C544.85985151 3.07858037 546.36286997 2.12865691 547.859375 1.171875 C548.56578125 0.78515625 549.2721875 0.3984375 550 0 C550.66 0.33 551.32 0.66 552 1 C551.45214844 1.81855469 550.90429688 2.63710937 550.33984375 3.48046875 C527.90682778 37.78779567 510.65849035 76.95620283 502 117 C501.79987305 117.88848633 501.59974609 118.77697266 501.39355469 119.69238281 C499.48322597 129.3248869 499.77808192 138.97773155 499.875 148.75 C499.88505426 150.5260366 499.89417577 152.30207873 499.90234375 154.078125 C499.9241534 158.38555589 499.95854701 162.6927152 500 167 C495.47384007 163.32167983 491.60575001 159.58913637 488 155 C486.21169864 199.05824306 497.11402005 238.94718804 517.49658203 277.85693359 C521.90802674 286.44631305 525.66658388 295.22757561 529.35400391 304.1484375 C535.85637592 319.87096017 542.30893005 334.7341254 552.31347656 348.58349609 C555.75855147 353.51970794 558.85686284 358.68099179 562 363.8125 C562.67659668 364.91505127 563.35319336 366.01760254 564.05029297 367.15356445 C584.710614 401.00952756 604.08613372 436.77829953 618 474 C618.54296992 475.41456253 619.08721921 476.82863472 619.6328125 478.2421875 C626.7452183 496.77714784 632.40969575 515.72393139 637.375 534.9375 C637.85066406 536.77634766 637.85066406 536.77634766 638.3359375 538.65234375 C638.97406484 541.8692563 639.12974667 544.73138208 639 548 C631.48349856 550.05691742 623.98797552 552.01711002 616.375 553.6875 C593.56290517 558.91404138 571.55630073 566.99495873 550 576 C549.07364746 576.38655762 548.14729492 576.77311523 547.19287109 577.17138672 C533.64307148 582.89398529 520.79012449 589.75551727 508 597 C507.23558594 597.42925781 506.47117187 597.85851562 505.68359375 598.30078125 C489.6727668 607.32298248 474.5066092 617.72430974 460 629 C459.18917969 629.6290625 458.37835937 630.258125 457.54296875 630.90625 C439.83594394 644.86590769 422.83025321 659.9888272 408 677 C407.14664062 677.96550781 406.29328125 678.93101562 405.4140625 679.92578125 C387.96199702 699.92622845 373.16120569 721.99700775 360 745 C352.9798201 735.81509604 352.9798201 735.81509604 353.015625 730.8203125 C353.50312901 728.13904045 354.20579997 725.60802806 355 723 C355.34675781 721.824375 355.69351562 720.64875 356.05078125 719.4375 C357.74287611 713.82533806 359.56771531 708.25828555 361.44921875 702.70703125 C364.46662222 693.80230291 367.21858322 684.87330712 369.74975586 675.81762695 C371.34658212 670.15312873 373.09447055 664.5677673 375 659 C377.18575431 652.61300032 379.12493139 646.19008239 380.9375 639.6875 C383.1924592 631.60133981 385.74131095 623.65572426 388.44921875 615.7109375 C391.31372159 607.23303672 393.70866324 598.6479484 396 590 C400.24013664 591.30417337 403.99314541 592.92686067 407.88671875 595.046875 C408.99080078 595.645 410.09488281 596.243125 411.23242188 596.859375 C412.37259766 597.48328125 413.51277344 598.1071875 414.6875 598.75 C415.80833984 599.3584375 416.92917969 599.966875 418.08398438 600.59375 C421.39207651 602.39083314 424.69646706 604.19455197 428 606 C430.11060156 607.15118015 432.22127281 608.30223253 434.33203125 609.453125 C435.8880459 610.30203739 437.44404572 611.15097696 439 612 C430.12230319 598.92055072 417.52199884 590.15411338 404.0546875 582.27734375 C403.03761719 581.64505859 403.03761719 581.64505859 402 581 C402 580.67 402 580.34 402 580 C403.29292969 579.89042969 404.58585937 579.78085937 405.91796875 579.66796875 C425.45296871 577.92955716 445.05837697 574.79465197 460 561 C460.93199219 560.18595703 460.93199219 560.18595703 461.8828125 559.35546875 C474.18036106 547.98955266 480.65184534 529.38637055 482 513 C482.10695356 509.66493252 482.09581177 506.33630176 482.0625 503 C482.05573242 501.69482422 482.05573242 501.69482422 482.04882812 500.36328125 C482.0371736 498.24215707 482.01924357 496.1210689 482 494 C481.65388672 495.30710937 481.65388672 495.30710937 481.30078125 496.640625 C476.02879735 515.89482705 467.87099756 534.28706867 449.8203125 544.58203125 C432.42562834 553.32755805 411.86133854 555.17471585 393.16796875 549.26171875 C382.96161647 545.1967967 374.36576778 539.13432948 369.78125 528.91796875 C366.70403277 521.36340045 366.70403277 521.36340045 368 517 C368.68964844 517.33773437 369.37929688 517.67546875 370.08984375 518.0234375 C385.08654855 525.14121509 399.74815145 526.04077675 415.65234375 521.2578125 C423.84060508 518.1812429 429.96060409 513.12814747 435 506 C435.6641273 504.38683528 436.30805306 502.76523474 436.93359375 501.13671875 C440.24800179 494.3977113 445.65868666 492.41107359 452.3125 489.5625 C454.11833793 488.74249089 455.92417111 487.92247097 457.72961426 487.10159302 C459.58091635 486.2665101 461.43830111 485.44676676 463.29833984 484.63134766 C468.03312322 482.55320451 472.72652755 480.38632233 477.42260742 478.22241211 C479.52785123 477.25445256 481.63602252 476.29283031 483.74731445 475.33813477 C484.68921631 474.91201904 485.63111816 474.48590332 486.6015625 474.046875 C487.84413818 473.48758301 487.84413818 473.48758301 489.11181641 472.91699219 C490.9646434 472.14441041 490.9646434 472.14441041 492 471 C459.34938355 459.89434815 423.58605711 449.68100411 390.6875 465.6875 C372.83873267 474.91331694 360.40675503 488.41345799 351 506 C350.67 506 350.34 506 350 506 C349.86480528 497.6460932 350.25473675 489.44374929 351 481.125 C351.18972309 478.96113126 351.37729437 476.79707256 351.5625 474.6328125 C351.64628906 473.69324707 351.73007812 472.75368164 351.81640625 471.78564453 C352.00904257 468.86279817 352 465.92918753 352 463 C346.39 483.46 340.78 503.92 335 525 C324.85919283 521.61973094 324.85919283 521.61973094 321.2734375 519.65234375 C320.47655518 519.21696289 319.67967285 518.78158203 318.85864258 518.33300781 C318.03904053 517.87249023 317.21943848 517.41197266 316.375 516.9375 C315.07502075 516.21385254 315.07502075 516.21385254 313.7487793 515.47558594 C306.56957505 511.42682944 299.43964809 507.19126372 292.81884766 502.265625 C290.96718259 500.91641254 290.96718259 500.91641254 288.64599609 499.796875 C285.28753557 497.82375431 282.64177642 496.03523061 281.42349243 492.17175293 C280.35652818 486.66997963 280.20660555 481.08691394 280 475.5 C279.90891999 473.80837521 279.81390164 472.11695763 279.71484375 470.42578125 C279.57589694 468.03563795 279.44245475 465.64675153 279.33984375 463.25476074 C279.14663098 458.77287861 278.70597338 454.4312957 278 450 C277.67 451.65 277.34 453.3 277 455 C276.34 455 275.68 455 275 455 C274.67 453.35 274.34 451.7 274 450 C273.59022855 454.33748668 273.1813354 458.67505508 272.77319336 463.01269531 C272.63475232 464.48276915 272.49608728 465.95282192 272.35717773 467.42285156 C272.22227896 468.85073321 272.08797301 470.27867099 271.95426941 471.70666504 C271.82075955 473.12027728 271.68429741 474.53361382 271.5448761 475.94665527 C271.23438396 479.15010607 270.98745632 482.33212191 270.8659668 485.54882812 C270.54648408 493.28279925 270.54648408 493.28279925 267.76171875 496.9375 C266.74722656 497.618125 265.73273438 498.29875 264.6875 499 C264.11990967 499.3911499 263.55231934 499.7822998 262.9675293 500.18530273 C261.00712562 501.5078445 259.01082678 502.75557599 257 504 C256.2462207 504.47969238 255.49244141 504.95938477 254.71582031 505.45361328 C223.89146376 525 223.89146376 525 217 525 C211.39 504.54 205.78 484.08 200 463 C200.72986913 477.14196975 200.72986913 477.14196975 201.8125 491.19921875 C202.14260719 496.1301949 202.07881495 501.06092967 202 506 C199.32925936 502.77549888 197.06227073 499.54037211 194.9375 495.9375 C183.16172806 477.30717424 165.60989778 465.59743847 144.44921875 459.7265625 C115.87915906 453.70840723 86.70658379 460.74929529 60 471 C69.65313436 475.89497522 79.369113 480.6583915 89.11294556 485.36981201 C90.404843 485.99449639 91.69649259 486.61969363 92.98788452 487.24542236 C94.83615217 488.14058997 96.68548542 489.03351723 98.53515625 489.92578125 C99.611604 490.44567627 100.68805176 490.96557129 101.79711914 491.5012207 C104.11697089 492.58678896 106.40775762 493.56406684 108.78100586 494.51147461 C112.88928096 496.41122078 113.64720772 498.18520062 115.5 502.25 C120.03304532 511.31609064 125.55962953 517.07130924 135 521 C152.37974439 526.75472919 168.5846943 524.15445846 185 517 C184.61717403 525.42217129 180.50638544 533.66391312 174.875 539.875 C163.54366756 550.04096565 148.87358212 552.22225485 134.25 552.3125 C133.38705322 552.31813965 132.52410645 552.3237793 131.63500977 552.32958984 C115.50039156 552.14780001 102.1980204 546.85092529 90.515625 535.609375 C81.97036763 526.49061042 77.07758804 516.74037613 73 505 C72.75121094 504.29488281 72.50242187 503.58976562 72.24609375 502.86328125 C70.9605036 498.86266855 70.82943821 495.17876398 71 491 C70.34 491 69.68 491 69 491 C69.55212733 515.75116656 71.78586428 540.47246191 89.8125 559.375 C94.50024209 563.78782188 99.25808036 567.11258769 105 570 C106.50433594 570.78697266 106.50433594 570.78697266 108.0390625 571.58984375 C121.12720576 577.85805288 135.6607682 579.04624376 150 580 C146.6402942 582.7911402 143.16895589 585.25351927 139.5300293 587.65380859 C133.20989881 591.84493301 127.26821838 596.23148076 121.6875 601.375 C121.15511719 601.86226562 120.62273437 602.34953125 120.07421875 602.8515625 C117.10271442 605.66830097 115.03035869 608.46787919 113 612 C117.07141794 609.83191696 121.14244363 607.66309968 125.21313477 605.49365234 C126.59291459 604.758433 127.97279443 604.02340131 129.3527832 603.28857422 C131.35655774 602.22154426 133.35995144 601.15380214 135.36328125 600.0859375 C136.01660431 599.73819275 136.66992737 599.390448 137.3430481 599.03216553 C142.24435703 596.41824691 147.10772602 593.74013784 151.94995117 591.01806641 C154 590 154 590 156 590 C158.13169859 596.75873847 160.16096556 603.53493108 162.07177734 610.35888672 C164.6048271 619.39070353 167.37408916 628.30031246 170.3894043 637.18237305 C172.97790298 644.83778104 175.31021656 652.55607848 177.6015625 660.3046875 C178.85264158 664.53158432 180.16607144 668.73615862 181.5 672.9375 C183.6950549 679.86509326 185.65952574 686.84970654 187.62011719 693.84667969 C189.71598503 701.22381248 192.09850436 708.48621827 194.64013672 715.72143555 C199.75861986 730.55437932 199.75861986 730.55437932 197.8828125 736.6015625 C197.30273438 737.59929688 196.72265625 738.59703125 196.125 739.625 C195.26261719 741.16027344 195.26261719 741.16027344 194.3828125 742.7265625 C193.92648437 743.47679687 193.47015625 744.22703125 193 745 C189.59077829 741.00191273 187.07007656 736.79910327 184.5 732.25 C179.20816723 723.0916305 173.2785542 714.50504707 167 706 C166.4750293 705.28811523 165.95005859 704.57623047 165.40917969 703.84277344 C150.64264097 683.93535819 134.23270869 664.76078949 115.57617188 648.38476562 C113.87016871 646.88593509 112.17769394 645.37251451 110.484375 643.859375 C74.52183074 611.95189793 31.13513431 586.36440945 -14 570 C-17.85238578 568.57407441 -21.69043024 567.12306949 -25.5078125 565.60546875 C-40.75361811 559.62898124 -56.60355918 555.78681705 -72.48046875 551.87890625 C-77.34237061 550.66477982 -82.17416494 549.34959794 -87 548 C-84.33258395 518.83625119 -72.44642315 488.77370861 -61 462 C-60.62504395 461.10635742 -60.25008789 460.21271484 -59.86376953 459.29199219 C-48.61569211 432.54301456 -35.64859463 406.49537636 -20.61572266 381.67138672 C-19.02463325 379.04072787 -17.45297367 376.39941258 -15.88671875 373.75390625 C-10.51749746 364.70614205 -5.01321916 355.75211785 0.64111328 346.87963867 C1.58269605 345.40203942 2.51845362 343.92071654 3.44921875 342.4362793 C4.52871741 340.74038555 5.63796162 339.06321391 6.76953125 337.40161133 C13.92090777 326.52555954 18.53449395 314.5442501 23.5 302.5625 C33.7600806 277.84536704 33.7600806 277.84536704 40.23535156 267.06225586 C43.19970541 261.91810944 45.42495832 256.50541436 47.625 251 C48.09373535 249.82775879 48.5624707 248.65551758 49.04541016 247.44775391 C60.64253435 217.82138565 65.28726633 186.71428147 64 155 C63.21753906 155.86625 62.43507813 156.7325 61.62890625 157.625 C60.60691351 158.75012962 59.58477034 159.8751226 58.5625 161 C58.04623047 161.57234375 57.52996094 162.1446875 56.99804688 162.734375 C55.6858708 164.17519579 54.34509096 165.58985784 53 167 C52.67 167 52.34 167 52 167 C52.01571045 165.93265625 52.0314209 164.8653125 52.04760742 163.765625 C52.10278021 159.72501471 52.1366603 155.68443602 52.16479492 151.64355469 C52.1796861 149.90977339 52.20000587 148.17602839 52.22631836 146.44238281 C52.39731765 134.86807791 51.62247818 124.29635005 49 113 C48.78077881 112.00613281 48.56155762 111.01226562 48.33569336 109.98828125 C41.95694985 82.03049022 30.56757303 55.30808892 16.7578125 30.23828125 C15.0956184 27.17615033 13.56912565 24.07836166 12.0625 20.9375 C9.08887332 14.89140032 5.47180905 9.34556271 1.7578125 3.73828125 C0 1 0 1 0 0 Z " fill="#ED8C21" transform="translate(374,168)"/>
<path d="M0 0 C1.19665283 0.00273422 1.19665283 0.00273422 2.41748047 0.00552368 C58.14467086 0.21831283 109.25105066 18.62605066 148.9375 58.3125 C149.11308893 60.28840435 149.28411804 62.26483956 149.42993164 64.24316406 C150.19943012 73.88549041 151.57331393 82.17542665 158.875 89.16796875 C166.83313419 95.09268262 176.48460228 97.1629429 186.1875 97.9375 C193.10985147 98.78262615 195.79659016 101.41309844 200.0078125 106.78125 C200.64460937 107.6165625 201.28140625 108.451875 201.9375 109.3125 C211.02952366 118.95427393 224.6863653 124.15817432 237.74780273 124.71508789 C252.81390747 124.9698417 267.73192721 119.59428533 278.65966797 109.04125977 C281.72229373 105.95056929 284.52151886 102.93647171 286.9375 99.3125 C289.921875 98.7578125 289.921875 98.7578125 293.6875 98.4375 C303.63054653 97.37303466 315.9376278 94.98796308 322.9375 87.3125 C327.9662915 80.92394203 329.25353432 75.06788192 329.75 67.1875 C330.16327469 61.38378949 330.5912649 57.55644041 334.875 53.25 C336.52935353 51.89595905 338.2186299 50.58364046 339.9375 49.3125 C340.77796875 48.59320312 341.6184375 47.87390625 342.484375 47.1328125 C381.41288137 13.84778782 429.28442189 0.11532771 479.9375 0 C480.70756378 -0.00367584 481.47762756 -0.00735168 482.27102661 -0.01113892 C493.29348291 -0.03865716 504.02065966 0.80366139 514.9375 2.3125 C513.80912099 6.04800581 512.69690046 9.05055988 510.28515625 12.125 C509.76171631 12.80071045 509.23827637 13.4764209 508.69897461 14.17260742 C508.13831299 14.87877197 507.57765137 15.58493652 507 16.3125 C506.41806885 17.05798096 505.8361377 17.80346191 505.23657227 18.5715332 C504.04437607 20.09683587 502.84866193 21.61939552 501.64941406 23.13916016 C500.10613789 25.0984078 498.577087 27.0674869 497.0546875 29.04296875 C491.08989336 36.75755077 484.84609459 44.19575879 478.45361328 51.55810547 C476.93700965 53.31306741 475.43337008 55.0783011 473.93359375 56.84765625 C468.49163362 63.26069881 462.95895906 69.55987785 457.20898438 75.69946289 C454.64101419 78.44445641 452.12920581 81.22590643 449.66552734 84.06518555 C437.54511922 97.9368039 424.48104479 110.9299186 411.4465332 123.93383789 C408.97021457 126.40439645 406.49850308 128.8795086 404.02803135 131.35591221 C401.62659546 133.76185353 399.22133299 136.16395426 396.81640625 138.56640625 C395.94230606 139.44253067 395.06820587 140.31865509 394.1676178 141.22132874 C389.79572907 145.57665176 385.36831876 149.79867807 380.67779541 153.81031799 C377.74197486 156.34444914 374.94566092 159.02684482 372.125 161.6875 C367.15911297 166.33439776 362.08499092 170.75545448 356.7734375 175.0078125 C354.08631428 177.19156278 351.46348928 179.43180396 348.84863281 181.70068359 C331.66046696 196.60993735 313.09327097 210.04350013 293.9375 222.3125 C293.34437012 222.6935791 292.75124023 223.0746582 292.14013672 223.46728516 C278.93994089 231.87001356 264.97760651 238.79652103 250.1875 243.9375 C249.46135498 244.19748779 248.73520996 244.45747559 247.98706055 244.7253418 C234.51426571 249.15142241 218.12890822 239.97950686 206.09765625 234.01953125 C190.55528888 226.03360761 175.99539885 216.35533902 162.03417969 205.8828125 C159.94095933 204.31509088 157.83544012 202.76532567 155.7265625 201.21875 C148.23413129 195.69805777 140.99753882 189.96729242 133.94921875 183.890625 C131.15226951 181.49634938 128.30900572 179.17883432 125.4375 176.875 C120.05176586 172.49565122 114.98933201 167.81205162 109.91796875 163.078125 C107.67151311 160.98339076 105.39276572 158.93920331 103.0625 156.9375 C89.58016747 145.2230691 76.99883868 132.5338028 64.39160156 119.89697266 C61.91316315 117.41278238 59.43018254 114.93318777 56.94589996 112.45484352 C54.53440601 110.04785632 52.12675425 107.63704091 49.71875 105.2265625 C48.83948853 104.34932526 47.96022705 103.47208801 47.05432129 102.56826782 C42.70005844 98.19750756 38.47651254 93.77328011 34.4666748 89.08322144 C31.72091741 85.90374747 28.81828112 82.86919146 25.9375 79.8125 C21.17093463 74.7264614 16.46327439 69.61523137 11.9375 64.3125 C11.0393435 63.26798748 10.14087566 62.22374263 9.2421875 61.1796875 C6.64356878 58.15833305 4.0539278 55.12940886 1.46630859 52.09863281 C0.04122046 50.43367836 -1.39053478 48.77473918 -2.82421875 47.1171875 C-12.37323951 36.02620763 -21.20755546 24.37970764 -29.75 12.5 C-30.16000244 11.931604 -30.57000488 11.36320801 -30.99243164 10.77758789 C-32.93856151 8.04005125 -34.60384813 5.33303889 -36.0625 2.3125 C-24.00256331 0.75496992 -12.15868721 -0.05836912 0 0 Z " fill="#CCCCCE" transform="translate(410.0625,889.6875)"/>
<path d="M0 0 C3.00222267 2.53196879 4.06958948 5.19175287 5.453125 8.828125 C5.90389404 10.00769775 6.35466309 11.18727051 6.8190918 12.40258789 C7.29722946 13.68462349 7.77416917 14.96710642 8.25 16.25 C8.61649155 17.23104202 8.61649155 17.23104202 8.99038696 18.23190308 C40.2123693 101.98149445 43.98374989 198.72080947 20 297 C19.57219238 298.55702637 19.57219238 298.55702637 19.13574219 300.14550781 C15.96310926 311.63980087 12.65937236 323.00645783 8 334 C5.04268485 331.22269534 2.86784139 328.45434324 0.75 325 C-4.72665487 316.2212444 -10.53150127 307.67278177 -16.35595703 299.12255859 C-17.6647798 297.20097029 -18.97173454 295.27810837 -20.27685547 293.35400391 C-23.2079318 289.04273568 -26.15391274 284.75411204 -29.23828125 280.55078125 C-34.96251855 272.69293028 -38.86437662 265.59283322 -41.39233398 256.15991211 C-42.16179078 253.42492444 -43.04155043 250.72980787 -43.90625 248.0234375 C-46.21393587 240.54259547 -47.95007052 232.96641754 -49.5625 225.3125 C-49.71341095 224.60288116 -49.8643219 223.89326233 -50.01980591 223.16213989 C-53.42463268 207.03300451 -56.33425537 190.5358097 -56 174 C-54 174 -54 174 -52.73046875 175.2578125 C-52.22128906 175.87398437 -51.71210937 176.49015625 -51.1875 177.125 C-47.5933717 181.36148315 -43.85071969 185.43792692 -40.0625 189.5 C-39.47041748 190.13566895 -38.87833496 190.77133789 -38.26831055 191.42626953 C-36.84650943 192.95175014 -35.42339382 194.47600541 -34 196 C-34.25394531 195.04222656 -34.50789062 194.08445312 -34.76953125 193.09765625 C-36.6653531 185.81570378 -38.37527859 178.53632593 -39.6875 171.125 C-39.80649658 170.46121338 -39.92549316 169.79742676 -40.0480957 169.11352539 C-41.76067422 159.09611409 -42.18645668 149.170892 -42.18530273 139.02539062 C-42.18747493 136.89953125 -42.20565568 134.7742047 -42.22460938 132.6484375 C-42.26428923 122.95175936 -41.4226406 113.58680333 -40 104 C-39.88487061 103.18241211 -39.76974121 102.36482422 -39.65112305 101.52246094 C-36.97615993 83.22974248 -32.19288921 65.03493615 -25 48 C-24.68724121 47.25250488 -24.37448242 46.50500977 -24.05224609 45.73486328 C-17.383038 29.9604277 -9.79302484 14.09637304 0 0 Z " fill="#D67127" transform="translate(934,186)"/>
<path d="M0 0 C30.18597932 35.89312348 43.21097783 89.91118976 43.25 135.8125 C43.25067474 136.53277374 43.25134949 137.25304749 43.25204468 137.99514771 C43.22344086 157.35565748 40.84213316 175.50376022 35 194 C35.33 194.33 35.66 194.66 36 195 C38.41973774 192.44038523 40.83522853 189.87679983 43.25 187.3125 C43.93191406 186.59126953 44.61382812 185.87003906 45.31640625 185.12695312 C48.12065238 182.14574 50.83741141 179.2080811 53.359375 175.98046875 C53.90078125 175.32691406 54.4421875 174.67335938 55 174 C55.66 174 56.32 174 57 174 C56.06267108 198.37055194 51.50798515 221.53597681 45.48120117 245.097229 C45.0432209 246.82909545 44.62315802 248.56546824 44.20507812 250.30224609 C40.46527456 265.65925787 33.28978129 276.92396949 23.85205078 289.50537109 C21.49362205 292.68206826 19.28889732 295.93909787 17.125 299.25 C16.37020964 300.3922034 15.61497427 301.53411281 14.859375 302.67578125 C14.43591797 303.31725098 14.01246094 303.9587207 13.57617188 304.61962891 C10.27498327 309.60516002 6.95195243 314.57621201 3.63372803 319.55041504 C1.61720815 322.57358149 -0.39840046 325.59735531 -2.4140625 328.62109375 C-4.20703125 331.31054688 -4.20703125 331.31054688 -6 334 C-8.16256188 330.75615719 -9.4056846 327.52081572 -10.6875 323.875 C-10.94442627 323.14579346 -11.20135254 322.41658691 -11.46606445 321.6652832 C-22.83845478 288.56989034 -28.93006013 254.60036535 -31.69140625 219.81933594 C-31.97776255 216.27522362 -32.29681611 212.73575204 -32.625 209.1953125 C-38.67240221 140.4808185 -32.11601455 62.16320608 0 0 Z " fill="#D67127" transform="translate(365,186)"/>
<path d="M0 0 C3.78821078 1.58062874 6.24884815 3.98161253 9.1875 6.8125 C29.21210199 25.59125229 52.15711249 38.77276219 77 50 C70.63725632 70.25297866 64.23572636 90.4884776 57.4777832 110.61352539 C52.65821444 124.96735156 47.94379119 139.35458095 43.25 153.75 C42.88740082 154.86189697 42.52480164 155.97379395 42.1512146 157.11938477 C40.09929457 163.41243004 38.04879384 169.70593626 36 176 C32.5510252 174.67749266 30.0526026 173.40884852 27.25 171 C22.82949836 167.46658047 18.16364218 164.51946631 13.3125 161.625 C12.22533691 160.96371094 12.22533691 160.96371094 11.11621094 160.2890625 C7.14543987 157.95653062 3.71842831 155.96245283 -1 156 C-3.70676353 157.12905614 -5.953678 158.25156413 -8.4375 159.75 C-9.12473145 160.14888428 -9.81196289 160.54776855 -10.52001953 160.95874023 C-16.38726519 164.44522011 -21.8941173 168.38713632 -27.30249023 172.54394531 C-31.81401266 176 -31.81401266 176 -34 176 C-37.0880089 166.62659184 -40.17494972 157.2528326 -43.26066399 147.87866879 C-44.6947724 143.52206035 -46.12919815 139.16555703 -47.56445312 134.80932617 C-53.69430531 116.20348841 -59.80786236 97.59330407 -65.79367065 78.9405365 C-68.25572057 71.27309062 -70.76109189 63.62242321 -73.37356567 56.004776 C-75 51.21023675 -75 51.21023675 -75 49 C-74.28199219 48.75507812 -73.56398438 48.51015625 -72.82421875 48.2578125 C-45.56331854 38.41265551 -20.27107257 20.62558063 0 0 Z " fill="#ED8C21" transform="translate(649,670)"/>
<path d="M0 0 C-3.24664266 11.78902629 -6.51120019 23.56750571 -10.125 35.25 C-13.45569357 46.04928178 -16.61522618 56.89689384 -19.75726318 67.75231934 C-20.32630625 69.71813359 -20.89614351 71.68371816 -21.46685791 73.64904785 C-24.61394151 84.49222995 -27.68789093 95.34264127 -30.45889282 106.28900146 C-31.89556652 111.89556652 -31.89556652 111.89556652 -33 113 C-36.11399171 113.12427495 -39.20891855 113.18684333 -42.32421875 113.2109375 C-44.30949858 113.23681934 -46.2947686 113.2634617 -48.2800293 113.29077148 C-49.85003189 113.31069656 -49.85003189 113.31069656 -51.45175171 113.33102417 C-75.24432259 113.65437999 -98.52430905 114.87781108 -122 119 C-122.79075928 119.13365967 -123.58151855 119.26731934 -124.39624023 119.4050293 C-172.63933011 127.68866431 -216.43999543 149.54456713 -252 183 C-253.85992358 180.90758597 -254.92460545 179.53095554 -255.32275391 176.72705078 C-254.88982892 173.06912942 -253.42222461 171.08258584 -251.3359375 168.0546875 C-250.95217453 167.49158875 -250.56841156 166.92848999 -250.17301941 166.34832764 C-248.91878707 164.515457 -247.64772568 162.69506706 -246.375 160.875 C-245.50065079 159.6089546 -244.62687531 158.34251279 -243.75366211 157.07568359 C-233.17990035 141.78579732 -222.34260969 126.91786768 -210 113 C-208.81205822 111.62538166 -207.6244873 110.25044262 -206.4375 108.875 C-196.2532348 97.30646575 -185.83691444 85.90907821 -174 76 C-173.49887695 75.56913086 -172.99775391 75.13826172 -172.48144531 74.69433594 C-155.24197457 59.90201454 -136.14272148 47.46208769 -116 37 C-114.77676025 36.35369629 -114.77676025 36.35369629 -113.52880859 35.69433594 C-28.01320025 -9.33773342 -28.01320025 -9.33773342 0 0 Z " fill="#CBCBCD" transform="translate(993,751)"/>
<path d="M0 0 C35.30208071 3.78469627 70.1134053 15.72006175 102 31 C102.89589844 31.42522949 103.79179687 31.85045898 104.71484375 32.28857422 C126.26127031 42.57533183 146.5940735 54.73354591 165 70 C165.83273437 70.66 166.66546875 71.32 167.5234375 72 C181.76927896 83.36325184 195.16093126 96.15272631 207 110 C207.84949219 110.96035156 208.69898438 111.92070313 209.57421875 112.91015625 C218.31038398 122.8336743 226.29482879 133.26065955 234 144 C234.43789856 144.61016968 234.87579712 145.22033936 235.32696533 145.84899902 C238.26509753 149.95272917 241.17075347 154.07747531 244.04690552 158.22488403 C245.01069385 159.60952896 245.98092471 160.98971311 246.95773315 162.36520386 C248.33532197 164.31000909 249.68589844 166.27108641 251.03125 168.23828125 C251.4481459 168.81677826 251.86504181 169.39527527 252.29457092 169.99130249 C254.43753793 173.19021796 255.00319923 174.90429987 254.87304688 178.79760742 C254 182 254 182 252 184 C251.2471875 183.27296875 250.494375 182.5459375 249.71875 181.796875 C236.11023627 168.83711141 221.25478286 158.38566942 205 149 C204.37303223 148.63422852 203.74606445 148.26845703 203.10009766 147.89160156 C191.91535499 141.42660783 180.04594122 136.61562533 168 132 C166.98752197 131.61134766 166.98752197 131.61134766 165.95458984 131.21484375 C154.55828443 126.92936764 142.64228792 124.34744542 130.79492188 121.64086914 C129.0905293 121.25005585 127.3880831 120.85044761 125.68945312 120.43530273 C119.27069717 118.90275916 112.80334969 118.15928502 106.25 117.4375 C105.15945313 117.31181641 104.06890625 117.18613281 102.9453125 117.05664062 C99.6320911 116.68263041 96.31747368 116.33410019 93 116 C91.57941284 115.85534302 91.57941284 115.85534302 90.13012695 115.70776367 C78.68052627 114.68522311 67.1739845 114.64882302 55.6875 114.4375 C53.48241521 114.39421854 51.27733698 114.35060151 49.07226562 114.30664062 C43.71491326 114.20055724 38.35749469 114.09861957 33 114 C31.23364799 109.40631173 29.5985487 104.89484663 28.3515625 100.12890625 C28.06796875 99.05833984 27.784375 97.98777344 27.4921875 96.88476562 C27.20601563 95.78841797 26.91984375 94.69207031 26.625 93.5625 C24.51568615 85.52074094 22.29872317 77.52335595 19.93615723 69.55300903 C18.45393312 64.55193677 16.99967537 59.54377866 15.5703125 54.52734375 C15.37103653 53.8280777 15.17176056 53.12881165 14.96644592 52.40835571 C14.56002656 50.98112438 14.15380346 49.55383715 13.74777222 48.12649536 C10.23328223 35.77333947 6.6906866 23.4293701 3.06884766 11.10717773 C2.80765137 10.21716064 2.54645508 9.32714355 2.27734375 8.41015625 C2.05296631 7.64840088 1.82858887 6.88664551 1.59741211 6.10180664 C1.02183082 4.07680489 0.49835128 2.04523829 0 0 Z " fill="#CCCCCE" transform="translate(307,750)"/>
<path d="M0 0 C3.48276829 1.76859327 6.77061884 3.70958264 10 5.8984375 C10.64864014 6.33615479 11.29728027 6.77387207 11.96557617 7.22485352 C33.36425131 21.97031159 49.23965904 40.96349742 60 64.5234375 C60.495 65.58691406 60.99 66.65039062 61.5 67.74609375 C64.63985423 74.83880019 66.51701104 81.92311911 68 89.5234375 C68.20625 90.47734375 68.4125 91.43125 68.625 92.4140625 C70.88738368 103.91451286 72.56732261 118.16644676 66 128.5234375 C63.75 130.8984375 63.75 130.8984375 61 132.5234375 C60.47019531 132.85730469 59.94039062 133.19117188 59.39453125 133.53515625 C44.67778271 141.97610584 23.65908284 141.57684532 7.5625 137.8984375 C-1.0439385 135.98589561 -9.36017048 136.64915211 -17.86816406 139.05078125 C-22.47557744 140.07230579 -27.30161833 139.75150806 -32 139.7734375 C-33.07378906 139.7940625 -34.14757812 139.8146875 -35.25390625 139.8359375 C-47.19749463 139.8934277 -58.11345944 137.46936599 -68 130.5234375 C-73.19931448 124.43643518 -74.33163797 118.10143958 -74.1875 110.2734375 C-74.1774292 109.51474365 -74.1673584 108.7560498 -74.15698242 107.97436523 C-74.11948809 105.82338653 -74.0630103 103.67379763 -74 101.5234375 C-73.97292969 100.18732422 -73.97292969 100.18732422 -73.9453125 98.82421875 C-72.05197834 66.91596949 -51.31955695 36.67953399 -28.18359375 16.09375 C-23.04691206 11.8243427 -17.45045407 8.12035918 -11.76708984 4.62158203 C-10.56046661 3.87173521 -9.37348875 3.0895678 -8.20556641 2.28076172 C-5.21407148 0.31843953 -3.58974082 -0.57024529 0 0 Z " fill="#FBFBFB" transform="translate(652,836.4765625)"/>
<path d="M0 0 C25.32470661 -0.51845856 50.39899962 0.30952523 75 7 C75.680625 7.18288574 76.36125 7.36577148 77.0625 7.55419922 C87.22979343 10.34876069 96.60131082 14.2516273 106 19 C106.94987793 19.47010498 106.94987793 19.47010498 107.91894531 19.94970703 C122.01057225 26.95279702 133.67284243 36.16252183 145 47 C146.3921875 48.31291016 146.3921875 48.31291016 147.8125 49.65234375 C154.41815701 56.04219094 160.12719994 62.86232765 165.63818359 70.18945312 C166.9637337 71.95178364 168.3036835 73.70242198 169.64453125 75.453125 C188.90044126 100.87021762 230 156.20405934 230 189 C205.96405114 184.74974075 183.68300189 169.76823515 164 156 C163.29520508 155.50773926 162.59041016 155.01547852 161.86425781 154.50830078 C151.4805618 147.21699214 141.49748296 139.53745184 131.73535156 131.43554688 C129.31911933 129.43675037 126.87628718 127.47117312 124.4375 125.5 C114.13332582 117.04410818 104.1391848 108.26253189 94.45019531 99.10864258 C91.15941689 96.00052946 87.82743128 92.9528517 84.44140625 89.94848633 C78.85068169 84.92162896 73.51554462 79.66128066 68.20703125 74.33984375 C67.20690665 73.34039547 66.20663389 72.34109544 65.20622253 71.3419342 C63.12812632 69.2652982 61.05181308 67.18690095 58.97680664 65.10717773 C56.33790128 62.46256112 53.69450934 59.82248174 51.04976368 57.18370724 C48.98970926 55.12729135 46.93207311 53.06846892 44.87512779 51.00894356 C43.90198487 50.03514123 42.92811999 49.06205973 41.95347023 48.08976555 C36.96787834 43.11359167 32.08230418 38.10822644 27.50761414 32.74916077 C24.7715951 29.57478276 21.87386706 26.54912715 19 23.5 C14.23285342 18.41634151 9.51557524 13.31021558 5 8 C4.49726563 7.42636719 3.99453125 6.85273437 3.4765625 6.26171875 C0 2.23774171 0 2.23774171 0 0 Z " fill="#FEFEFE" transform="translate(417,946)"/>
<path d="M0 0 C-1.64388508 3.46743471 -3.57215868 5.92309063 -6.1875 8.75 C-8.95141966 11.76438614 -11.70118979 14.78037221 -14.375 17.875 C-18.15920178 22.21595791 -22.05057414 26.45653299 -25.95556641 30.68847656 C-27.77962178 32.66789636 -29.59106829 34.65607917 -31.39282227 36.65600586 C-40.81805813 47.04371911 -50.7651604 56.9180247 -60.69189453 66.82226562 C-63.2523617 69.37699803 -65.80825789 71.93624935 -68.36288071 74.49682426 C-70.36010047 76.49768134 -72.3597249 78.49612166 -74.36005402 80.49386978 C-75.75486705 81.88770888 -77.14769798 83.2835306 -78.54046631 84.67941284 C-82.99248686 89.11514564 -87.49257199 93.42562186 -92.27110291 97.50921631 C-95.20415431 100.03831143 -97.99576755 102.71805044 -100.8125 105.375 C-105.77838703 110.02189776 -110.85250908 114.44295448 -116.1640625 118.6953125 C-118.85118572 120.87906278 -121.47401072 123.11930396 -124.08886719 125.38818359 C-141.27703304 140.29743735 -159.84422903 153.73100013 -179 166 C-179.59312988 166.3810791 -180.18625977 166.7621582 -180.79736328 167.15478516 C-215.11492064 189 -215.11492064 189 -230 189 C-227.81138893 180.56465206 -224.42321986 172.78493632 -220.8125 164.875 C-220.21920671 163.56658333 -219.62594526 162.25815221 -219.03271484 160.94970703 C-214.8964323 151.85388883 -210.7030482 142.81821537 -206 134 C-205.50371094 133.0610791 -205.00742187 132.1221582 -204.49609375 131.15478516 C-192.54529982 108.67772639 -179.22148011 86.68952069 -163 67 C-162.59330078 66.4946875 -162.18660156 65.989375 -161.76757812 65.46875 C-146.50653773 46.51439846 -129.63310272 31.23691023 -108 20 C-107.34580078 19.65195312 -106.69160156 19.30390625 -106.01757812 18.9453125 C-73.03025321 1.55259015 -36.48980653 -0.48159136 0 0 Z " fill="#FEFEFE" transform="translate(883,946)"/>
<path d="M0 0 C0.33 0 0.66 0 1 0 C1.08636719 1.17433594 1.17273438 2.34867188 1.26171875 3.55859375 C3.20261302 26.89326978 9.65663553 47.03104817 28.125 62.6875 C44.1808864 74.49904774 62.72562448 76.35178881 82 78 C78.6402942 80.7911402 75.16895589 83.25351927 71.5300293 85.65380859 C65.20989881 89.84493301 59.26821838 94.23148076 53.6875 99.375 C53.15511719 99.86226562 52.62273437 100.34953125 52.07421875 100.8515625 C49.10271442 103.66830097 47.03035869 106.46787919 45 110 C49.07141794 107.83191696 53.14244363 105.66309968 57.21313477 103.49365234 C58.59291459 102.758433 59.97279443 102.02340131 61.3527832 101.28857422 C63.35655774 100.22154426 65.35995144 99.15380214 67.36328125 98.0859375 C68.34326584 97.56432037 68.34326584 97.56432037 69.3430481 97.03216553 C74.24435703 94.41824691 79.10772602 91.74013784 83.94995117 89.01806641 C86 88 86 88 88 88 C90.13169859 94.75873847 92.16096556 101.53493108 94.07177734 108.35888672 C96.6048271 117.39070353 99.37408916 126.30031246 102.3894043 135.18237305 C104.97790298 142.83778104 107.31021656 150.55607848 109.6015625 158.3046875 C110.85264158 162.53158432 112.16607144 166.73615862 113.5 170.9375 C115.6950549 177.86509326 117.65952574 184.84970654 119.62011719 191.84667969 C121.71598503 199.22381248 124.09850436 206.48621827 126.64013672 213.72143555 C131.75861986 228.55437932 131.75861986 228.55437932 129.8828125 234.6015625 C129.01269531 236.09816406 129.01269531 236.09816406 128.125 237.625 C127.55007813 238.64851562 126.97515625 239.67203125 126.3828125 240.7265625 C125.92648437 241.47679687 125.47015625 242.22703125 125 243 C121.59077829 239.00191273 119.07007656 234.79910327 116.5 230.25 C111.20816723 221.0916305 105.2785542 212.50504707 99 204 C98.4750293 203.28811523 97.95005859 202.57623047 97.40917969 201.84277344 C82.64264097 181.93535819 66.23270869 162.76078949 47.57617188 146.38476562 C45.87016871 144.88593509 44.17769394 143.37251451 42.484375 141.859375 C6.52183074 109.95189793 -36.86486569 84.36440945 -82 68 C-85.85238578 66.57407441 -89.69043024 65.12306949 -93.5078125 63.60546875 C-108.75361811 57.62898124 -124.60355918 53.78681705 -140.48046875 49.87890625 C-145.34237061 48.66477982 -150.17416494 47.34959794 -155 46 C-154.35343144 37.10968231 -152.12977433 28.62806252 -150 20 C-149.67 21.32 -149.34 22.64 -149 24 C-147.63875 24.14308594 -147.63875 24.14308594 -146.25 24.2890625 C-110.57813939 29.44364636 -71.71480843 47.26994525 -40.06201172 63.92626953 C-37.66931975 65.17219178 -35.25900954 66.38044385 -32.84765625 67.58984375 C-10.8578905 78.71351701 9.85884004 91.82838865 30 106 C30.11214844 105.28070312 30.22429687 104.56140625 30.33984375 103.8203125 C31.03834618 100.83617786 32.11649621 98.56926347 33.5625 95.875 C35.58679491 92.15755484 35.58679491 92.15755484 36 88 C33.86565856 86.33929051 31.75472289 84.85378761 29.5 83.375 C13.69925829 72.48203442 5.51989009 57.33174305 1 39 C0.16223776 34.05586592 -0.11778395 29.32820422 -0.09765625 24.31640625 C-0.09553383 23.26585304 -0.09553383 23.26585304 -0.09336853 22.19407654 C-0.08782477 19.98350534 -0.07528326 17.77303996 -0.0625 15.5625 C-0.05747771 14.05273585 -0.05291609 12.54297009 -0.04882812 11.03320312 C-0.03787387 7.35543507 -0.0206489 3.67772788 0 0 Z " fill="#D57127" transform="translate(442,670)"/>
<path d="M0 0 C0.33 0 0.66 0 1 0 C1.94761057 23.99641528 -0.67945716 45.69115699 -16.75390625 64.6796875 C-22.18543225 70.29069002 -28.23084416 75.10925998 -35 79 C-34.40470471 82.81810085 -33.2606562 85.7280081 -31.4375 89.125 C-29 93.66855524 -29 93.66855524 -29 97 C-28.2972998 96.52280518 -27.59459961 96.04561035 -26.87060547 95.55395508 C-3.02741562 79.4033047 21.23252695 64.93552643 47 52 C47.91072266 51.53996582 48.82144531 51.07993164 49.75976562 50.60595703 C77.60050801 36.62736376 107.05840294 26.11486053 136.9375 17.4375 C137.80189697 17.18564941 138.66629395 16.93379883 139.55688477 16.67431641 C140.74882446 16.33859619 140.74882446 16.33859619 141.96484375 15.99609375 C142.6518335 15.80200928 143.33882324 15.6079248 144.04663086 15.40795898 C146 15 146 15 150 15 C150.33 13.68 150.66 12.36 151 11 C151.84516531 14.20533441 152.67397973 17.41468338 153.5 20.625 C153.73847656 21.52863281 153.97695313 22.43226563 154.22265625 23.36328125 C155.40962058 28.00939877 156.3215738 32.16031428 156 37 C148.48349856 39.05691742 140.98797552 41.01711002 133.375 42.6875 C110.56290517 47.91404138 88.55630073 55.99495873 67 65 C66.07364746 65.38655762 65.14729492 65.77311523 64.19287109 66.17138672 C50.64307148 71.89398529 37.79012449 78.75551727 25 86 C24.23558594 86.42925781 23.47117187 86.85851562 22.68359375 87.30078125 C6.6727668 96.32298248 -8.4933908 106.72430974 -23 118 C-23.81082031 118.6290625 -24.62164063 119.258125 -25.45703125 119.90625 C-43.16405606 133.86590769 -60.16974679 148.9888272 -75 166 C-76.28003906 167.44826172 -76.28003906 167.44826172 -77.5859375 168.92578125 C-95.03800298 188.92622845 -109.83879431 210.99700775 -123 234 C-130.0201799 224.81509604 -130.0201799 224.81509604 -129.984375 219.8203125 C-129.49687099 217.13904045 -128.79420003 214.60802806 -128 212 C-127.47986328 210.2365625 -127.47986328 210.2365625 -126.94921875 208.4375 C-125.25712389 202.82533806 -123.43228469 197.25828555 -121.55078125 191.70703125 C-118.53337778 182.80230291 -115.78141678 173.87330712 -113.25024414 164.81762695 C-111.65341788 159.15312873 -109.90552945 153.5677673 -108 148 C-105.81424569 141.61300032 -103.87506861 135.19008239 -102.0625 128.6875 C-99.8075408 120.60133981 -97.25868905 112.65572426 -94.55078125 104.7109375 C-91.68627841 96.23303672 -89.29133676 87.6479484 -87 79 C-82.75986336 80.30417337 -79.00685459 81.92686067 -75.11328125 84.046875 C-74.00919922 84.645 -72.90511719 85.243125 -71.76757812 85.859375 C-70.62740234 86.48328125 -69.48722656 87.1071875 -68.3125 87.75 C-67.19166016 88.3584375 -66.07082031 88.966875 -64.91601562 89.59375 C-61.60792349 91.39083314 -58.30353294 93.19455197 -55 95 C-52.88939844 96.15118015 -50.77872719 97.30223253 -48.66796875 98.453125 C-47.1119541 99.30203739 -45.55595428 100.15097696 -44 101 C-52.87769681 87.92055072 -65.47800116 79.15411338 -78.9453125 71.27734375 C-79.62335937 70.85582031 -80.30140625 70.43429687 -81 70 C-81 69.67 -81 69.34 -81 69 C-79.70707031 68.89042969 -78.41414062 68.78085937 -77.08203125 68.66796875 C-57.54703129 66.92955716 -37.94162303 63.79465197 -23 50 C-22.37867188 49.45730469 -21.75734375 48.91460938 -21.1171875 48.35546875 C-7.82147752 36.06700952 -3.16677157 17.17507873 0 0 Z " fill="#D57127" transform="translate(857,679)"/>
<path d="M0 0 C0.99 0.495 0.99 0.495 2 1 C1.0479279 2.00596297 0.08812654 3.00461563 -0.875 4 C-1.40867187 4.556875 -1.94234375 5.11375 -2.4921875 5.6875 C-4 7 -4 7 -6 7 C-6.42430298 7.88026855 -6.42430298 7.88026855 -6.85717773 8.77832031 C-7.89900085 10.80365471 -9.02278534 12.65396547 -10.28515625 14.546875 C-10.9507959 15.55463989 -10.9507959 15.55463989 -11.62988281 16.58276367 C-12.10264648 17.29795166 -12.57541016 18.01313965 -13.0625 18.75 C-18.43075177 26.96759542 -23.36029806 35.35236625 -28 44 C-28.62777344 45.16015625 -29.25554687 46.3203125 -29.90234375 47.515625 C-47.43448679 81.12209612 -45.378334 114.54324117 -34.2890625 149.9765625 C-25.84801035 176.19971074 -15.13122946 201.5575344 -2.48828125 226.03125 C-1.17485507 228.65120773 -0.03731948 231.26106777 1 234 C-8.05061156 229.07516272 -15.97735707 223.41608072 -24 217 C-24.84175781 216.34128906 -25.68351563 215.68257812 -26.55078125 215.00390625 C-29.05764229 213.0304199 -31.53155533 211.02131622 -34 209 C-34.96421875 208.22269531 -35.9284375 207.44539062 -36.921875 206.64453125 C-44.98176394 200.02099702 -52.42389544 192.7902943 -59.8125 185.4375 C-60.30027924 184.95489716 -60.78805847 184.47229431 -61.2906189 183.97506714 C-67.98922034 177.3325634 -74.1629952 170.4146885 -80 163 C-80.57967529 162.27433838 -81.15935059 161.54867676 -81.7565918 160.80102539 C-95.53032922 143.46981881 -109.51632511 123.58148807 -116.59765625 102.4375 C-117.65667474 98.94061046 -117.65667474 98.94061046 -120.1875 97.5 C-120.785625 97.335 -121.38375 97.17 -122 97 C-120.62705778 96.65828994 -119.25149882 96.32708883 -117.875 96 C-117.10929688 95.814375 -116.34359375 95.62875 -115.5546875 95.4375 C-112.66526648 94.9426756 -109.92602801 94.93215008 -107 95 C-101.20471077 105.55967123 -95.43106609 116.12465736 -89.875 126.8125 C-81.75914137 142.33629697 -73.28093471 156.38741268 -61.40625 169.34765625 C-60.12487028 170.76008617 -58.84882132 172.17817392 -57.61499023 173.63232422 C-51.80370688 180.45430441 -45.41799512 186.69208805 -39.0625 193 C-37.88973991 194.16773374 -36.71721202 195.33570074 -35.54492188 196.50390625 C-32.69928311 199.33863234 -29.85052547 202.17018824 -27 205 C-30.32960181 199.91052617 -33.71400952 194.95331548 -37.5 190.1875 C-44.37393919 181.39431844 -50.67957193 172.19470907 -57 163 C-57.4856543 162.29488281 -57.97130859 161.58976563 -58.47167969 160.86328125 C-59.78058055 158.9556777 -61.08008278 157.04211669 -62.375 155.125 C-63.08398438 154.07570313 -63.79296875 153.02640625 -64.5234375 151.9453125 C-70.95143893 141.92649647 -76.40235213 131.48187963 -81.36523438 120.67578125 C-82.25747471 118.73373054 -83.15924041 116.79632175 -84.0625 114.859375 C-93 95.61642773 -93 95.61642773 -93 91 C-92.34 91 -91.68 91 -91 91 C-90.76796875 90.47019531 -90.5359375 89.94039063 -90.296875 89.39453125 C-88.59076285 86.24439044 -86.45969878 83.49299323 -84.25 80.6875 C-83.77191895 80.07938477 -83.29383789 79.47126953 -82.80126953 78.84472656 C-77.41376332 72.10560886 -71.49373437 65.89349848 -65.54833984 59.64990234 C-63.53526453 57.50478046 -61.61314574 55.286118 -59.6875 53.0625 C-52.9718643 45.54349853 -45.39929717 38.83276585 -38 32 C-36.94791363 31.02213869 -35.89582992 30.0442745 -34.84375 29.06640625 C-29.28047022 23.94275346 -23.55386667 19.0764338 -17.66015625 14.33789062 C-14.94211803 12.14747159 -12.23609928 9.94228133 -9.52807617 7.73950195 C-6.35368061 5.15766023 -3.17688159 2.57878164 0 0 Z " fill="#D67127" transform="translate(821,234)"/>
<path d="M0 0 C5.5422268 4.02083121 10.80261171 8.31118839 16.00415039 12.7590332 C19.49408602 15.74028168 23.03483604 18.63916834 26.625 21.5 C31.55931298 25.5077826 35.99396462 29.89532944 40.43359375 34.4296875 C43.23363045 37.23398606 46.16178701 39.81692939 49.16796875 42.39453125 C54.21267205 46.81536932 58.69791661 51.71032844 63.06640625 56.7890625 C65.24595981 59.2812389 67.4977328 61.69838668 69.75 64.125 C73.69655604 68.45348082 77.42934793 72.90555162 81.0625 77.5 C81.53977539 78.0995752 82.01705078 78.69915039 82.50878906 79.31689453 C84.50015344 81.86674147 85.96873104 83.90619312 87 87 C87.66 87 88.32 87 89 87 C88.43669469 91.26924062 87.42255275 94.71323829 85.59375 98.60546875 C85.10213379 99.66161377 84.61051758 100.71775879 84.10400391 101.8059082 C83.57468262 102.9218335 83.04536133 104.03775879 82.5 105.1875 C81.9539209 106.34789795 81.4078418 107.5082959 80.84521484 108.70385742 C79.74115127 111.04938562 78.63489313 113.39388216 77.52636719 115.73730469 C76.21383817 118.54290894 74.94163648 121.35989735 73.6953125 124.1953125 C68.12237013 136.73410709 60.86209614 147.78296719 53 159 C51.97495814 160.47895721 50.95020314 161.95811329 49.92578125 163.4375 C44.01004291 171.93126516 37.89565428 180.27722471 31.71875 188.58251953 C31.161875 189.33259277 30.605 190.08266602 30.03125 190.85546875 C29.54205078 191.51184326 29.05285156 192.16821777 28.54882812 192.84448242 C26.6283725 195.51719722 24.81380139 198.25410623 23 201 C27.28999368 196.73490138 31.57655737 192.46639432 35.86010742 188.19482422 C37.31492017 186.74501083 38.77063283 185.29609983 40.22729492 183.84814453 C42.33234551 181.75535357 44.43403619 179.65923626 46.53515625 177.5625 C47.17711441 176.92570313 47.81907257 176.28890625 48.48048401 175.6328125 C67.73410758 156.38153405 80.62238166 133.75401094 92.734375 109.60546875 C93.31840088 108.44974365 93.90242676 107.29401855 94.50415039 106.10327148 C95.60406715 103.91221177 96.6873783 101.71271548 97.75170898 99.50415039 C98.23969971 98.52824951 98.72769043 97.55234863 99.23046875 96.546875 C99.64707764 95.68932617 100.06368652 94.83177734 100.49291992 93.94824219 C102 92 102 92 104.4921875 91.19458008 C107.44418432 90.96553593 109.91453104 91.34394009 112.8125 91.9375 C113.78832031 92.13214844 114.76414062 92.32679688 115.76953125 92.52734375 C116.87361328 92.76130859 116.87361328 92.76130859 118 93 C115 95 115 95 113 95 C112.81691284 96.08740479 112.81691284 96.08740479 112.63012695 97.19677734 C107.59615606 119.59121897 90.19005314 141.49172406 76 159 C75.51015625 159.6069873 75.0203125 160.21397461 74.515625 160.83935547 C67.46333381 169.48646922 59.73416878 177.46470172 51.875 185.375 C50.96886963 186.29047607 50.06273926 187.20595215 49.12915039 188.14916992 C43.83067211 193.42272997 38.36654393 198.3185525 32.52441406 202.98364258 C29.93664162 205.05060705 27.40393198 207.1741515 24.875 209.3125 C20.14194237 213.18624169 15.24004929 216.77702907 10.25 220.3125 C9.54085449 220.81628174 8.83170898 221.32006348 8.10107422 221.83911133 C3.85291079 224.81660541 -0.45618558 227.49614415 -5 230 C-3.30557191 225.58760605 -1.32968992 221.33346088 0.6875 217.0625 C1.04416748 216.30308105 1.40083496 215.54366211 1.76831055 214.76123047 C3.85983284 210.33097641 6.04492106 205.96845434 8.3125 201.625 C26.31698912 165.73905928 49.03570502 112.30957558 37.16796875 71.24609375 C28.4052824 46.89227316 17.13886565 24.53254651 1.328125 3.93359375 C0 2 0 2 0 0 Z " fill="#D67127" transform="translate(483,238)"/>
<path d="M0 0 C5.68337728 4.8284419 6.54605057 10.81837676 7.28515625 17.94140625 C8.19329762 30.93177623 7.70195472 42.74586437 -0.9921875 53.234375 C-8.07979015 60.25769101 -18.2133189 62.01446152 -27.57324219 64.38916016 C-29.44318623 64.87135503 -31.30278832 65.39330431 -33.16015625 65.921875 C-42.50922164 68.52154984 -50.08485351 68.94420819 -59.24584961 65.73486328 C-62.60738731 64.65457083 -66.01205013 63.97114051 -69.46655273 63.25683594 C-81.78060549 60.66440378 -90.4453761 57.34259651 -97.55859375 46.4453125 C-100.4468003 40.19078413 -101.07758639 34.04183516 -101.02734375 27.25390625 C-101.0231543 26.47442627 -101.01896484 25.69494629 -101.01464844 24.8918457 C-100.839398 15.80399205 -100.13466601 6.83293588 -93.71484375 -0.05859375 C-87.61953076 -4.69958645 -81.08577582 -7.23711136 -73.71484375 -9.05859375 C-73.02519531 -9.25195312 -72.33554687 -9.4453125 -71.625 -9.64453125 C-49.19174302 -15.77480742 -19.00868438 -14.41377938 0 0 Z " fill="#010101" transform="translate(696.71484375,900.05859375)"/>
<path d="M0 0 C-0.61484735 5.04435769 -1.66856098 9.79529064 -3.109375 14.671875 C-3.31665726 15.38842255 -3.52393951 16.10497009 -3.73750305 16.8432312 C-4.40435046 19.14666501 -5.07721366 21.4482947 -5.75 23.75 C-6.66311713 26.89758518 -7.57247168 30.04624683 -8.48046875 33.1953125 C-8.7018602 33.96221405 -8.92325165 34.7291156 -9.15135193 35.51925659 C-11.09978704 42.29339957 -12.92586279 49.09570198 -14.64160156 55.93261719 C-15.90246629 60.90246629 -15.90246629 60.90246629 -17 62 C-20.11399171 62.12427495 -23.20891855 62.18684333 -26.32421875 62.2109375 C-28.30949858 62.23681934 -30.2947686 62.2634617 -32.2800293 62.29077148 C-33.85003189 62.31069656 -33.85003189 62.31069656 -35.45175171 62.33102417 C-59.24432259 62.65437999 -82.52430905 63.87781108 -106 68 C-106.79075928 68.13365967 -107.58151855 68.26731934 -108.39624023 68.4050293 C-129.28003739 71.99090561 -149.24542656 78.37876398 -168.61230469 86.93798828 C-169.55493164 87.35161621 -170.49755859 87.76524414 -171.46875 88.19140625 C-172.29826172 88.56467041 -173.12777344 88.93793457 -173.98242188 89.32250977 C-174.98112305 89.65786743 -174.98112305 89.65786743 -176 90 C-176.66 89.67 -177.32 89.34 -178 89 C-169.36831062 80.01245874 -160.62110756 71.65385825 -150.6171875 64.21142578 C-149.10360404 63.07760919 -147.61331365 61.91288312 -146.125 60.74609375 C-106.87850581 30.27555174 -59.68120522 12.40987175 -11.625 1.5625 C-10.53807861 1.31657104 -10.53807861 1.31657104 -9.42919922 1.06567383 C-6.17028881 0.35932652 -3.35851279 0 0 0 Z " fill="#FDFDFD" transform="translate(977,802)"/>
<path d="M0 0 C18.06029179 3.24789989 35.60441687 7.09333874 53 13 C53.94230469 13.31565918 54.88460937 13.63131836 55.85546875 13.95654297 C102.09887854 29.55991572 143.82104991 53.96180256 178 89 C177.01 89.495 177.01 89.495 176 90 C173.15786344 88.90452981 170.40355938 87.74024136 167.625 86.5 C150.35240684 79.05068257 133.07969564 73.70190078 114.71435547 69.60864258 C113.04361564 69.23401095 111.37526986 68.84824936 109.71142578 68.4440918 C103.28441177 66.90840133 96.81217267 66.16025678 90.25 65.4375 C89.15945313 65.31181641 88.06890625 65.18613281 86.9453125 65.05664062 C83.6320911 64.68263041 80.31747368 64.33410019 77 64 C76.05294189 63.90356201 75.10588379 63.80712402 74.13012695 63.70776367 C62.68052627 62.68522311 51.1739845 62.64882302 39.6875 62.4375 C37.48241521 62.39421854 35.27733698 62.35060151 33.07226562 62.30664062 C27.71491326 62.20055724 22.35749469 62.09861957 17 62 C15.23364799 57.40631173 13.5985487 52.89484663 12.3515625 48.12890625 C12.07078857 47.06776611 11.79001465 46.00662598 11.50073242 44.91333008 C11.21174072 43.80755615 10.92274902 42.70178223 10.625 41.5625 C8.22239624 32.49682805 5.73195259 23.47297468 3.04296875 14.48828125 C2.69878906 13.33714844 2.35460937 12.18601562 2 11 C1.62488281 9.77667969 1.24976563 8.55335938 0.86328125 7.29296875 C0 4 0 4 0 0 Z " fill="#FDFDFD" transform="translate(323,802)"/>
<path d="M0 0 C5.15421007 4.34886475 10.14691044 8.81719428 15 13.5 C15.69222656 14.13808594 16.38445313 14.77617188 17.09765625 15.43359375 C17.74605469 16.06394531 18.39445313 16.69429687 19.0625 17.34375 C19.65160156 17.90255859 20.24070312 18.46136719 20.84765625 19.03710938 C22.56498439 21.96238866 21.79520043 23.76262764 21 27 C20.62742065 28.62627319 20.62742065 28.62627319 20.24731445 30.28540039 C19.9555835 31.46094482 19.66385254 32.63648926 19.36328125 33.84765625 C19.20348785 34.49220261 19.04369446 35.13674896 18.87905884 35.80082703 C18.35989692 37.88881935 17.83657549 39.97573591 17.3125 42.0625 C17.13292755 42.78062866 16.9533551 43.49875732 16.76834106 44.23864746 C14.42355516 53.60320211 11.95095548 62.91073082 9.22436523 72.17236328 C6.72276629 80.75629784 4.60896211 89.43248852 2.46899414 98.11230469 C0.76884676 104.98877248 -1.03204338 111.80076222 -3.0390625 118.59375 C-4.53380881 123.89220034 -5.82120306 129.24079203 -7.13623047 134.58618164 C-8.67992985 140.82265529 -10.37673044 146.99200472 -12.203125 153.15234375 C-12.93212624 155.75745111 -13.51026929 158.34076224 -14 161 C-17.38041098 157.85775434 -19.9194445 154.35731119 -22.5 150.5625 C-28.77400062 141.54407158 -36.20597512 133.72014786 -44 126 C-40.98462839 113.47902836 -36.40327389 101.36069585 -31.86230469 89.32592773 C-29.80652706 83.78079934 -27.85059419 78.19908271 -25.875 72.625 C-25.63555664 71.95024628 -25.39611328 71.27549255 -25.14941406 70.58029175 C-21.34747993 59.86384236 -17.59831692 49.13019947 -13.90576172 38.37548828 C-12.23932294 33.53089577 -10.53851055 28.70846369 -8.71923828 23.91918945 C-7.12682858 19.67006091 -5.65788333 15.37566335 -4.16210938 11.09179688 C-2.85280155 7.35909154 -1.50815246 3.65853251 0 0 Z " fill="#EC8C21" transform="translate(736,728)"/>
<path d="M0 0 C2.25931094 2.25931094 2.5582542 3.4636274 3.375 6.5 C4.34279045 9.88247552 5.39787748 13.12759463 6.75 16.375 C9.02390063 21.91922962 10.97730409 27.55896106 12.94042969 33.21850586 C14.82187845 38.63819426 16.72421376 44.04986716 18.65234375 49.453125 C27.78471002 75.05560026 27.78471002 75.05560026 31.71875 87.23022461 C33.28989916 92.05112308 35.06483392 96.74722621 36.97192383 101.44506836 C38.6936788 105.72390137 40.30101133 110.03997286 41.875 114.375 C42.20757813 115.25027344 42.54015625 116.12554688 42.8828125 117.02734375 C43.18703125 117.87167969 43.49125 118.71601562 43.8046875 119.5859375 C44.08296387 120.3392334 44.36124023 121.0925293 44.64794922 121.86865234 C45.09960753 124.60303311 44.48605706 125.70388786 43 128 C41.54295199 129.52149437 40.03626602 130.99603521 38.5 132.4375 C30.56667854 140.21032074 23.99115009 149.04049245 18.15625 158.48828125 C17.58390625 159.23658203 17.58390625 159.23658203 17 160 C16.34 160 15.68 160 15 160 C14.77860352 159.13947021 14.55720703 158.27894043 14.32910156 157.39233398 C13.48717165 154.1212041 12.64464908 150.85022795 11.80175781 147.5793457 C11.4408526 146.17836278 11.08016657 144.77732338 10.71972656 143.3762207 C7.38860497 130.4285791 3.95315802 117.51080163 0.46411133 104.60473633 C-2.38761524 94.05326507 -5.19288667 83.49105033 -7.94091797 72.91210938 C-9.27669999 67.7699317 -10.62509244 62.63185661 -12 57.5 C-13.74145701 50.98239507 -15.47082538 44.46167908 -17.1875 37.9375 C-17.44982422 36.94878906 -17.71214844 35.96007812 -17.98242188 34.94140625 C-18.22927734 34.00039063 -18.47613281 33.059375 -18.73046875 32.08984375 C-18.95114014 31.25316162 -19.17181152 30.41647949 -19.39916992 29.55444336 C-19.59744385 28.71147705 -19.79571777 27.86851074 -20 27 C-20.28391602 26.01185303 -20.56783203 25.02370605 -20.86035156 24.00561523 C-21 21 -21 21 -19.18579102 18.39111328 C-18.30076904 17.54274902 -17.41574707 16.69438477 -16.50390625 15.8203125 C-16.03637436 15.36268524 -15.56884247 14.90505798 -15.08714294 14.43356323 C-13.59457951 12.98009071 -12.0795423 11.55286107 -10.5625 10.125 C-9.54464099 9.1422619 -8.52834432 8.15790287 -7.51367188 7.171875 C-5.02694704 4.76219909 -2.51946893 2.37547215 0 0 Z " fill="#EC8C21" transform="translate(563,728)"/>
<path d="M0 0 C0.33 0 0.66 0 1 0 C1.89687167 3.91829999 2.1928263 7.67534108 2.375 11.6875 C2.81373384 19.7444196 3.73745275 27.71759002 4.70043945 35.72631836 C5.54444627 42.83764268 6.31182604 49.95168139 7.015625 57.078125 C7.10236984 57.95645996 7.18911469 58.83479492 7.27848816 59.73974609 C7.70881719 64.11442121 8.1336536 68.48958538 8.55395508 72.86523438 C9.37563453 81.3269301 10.30763565 89.72534144 11.63061523 98.12597656 C11.97314346 100.79104084 12.06957266 103.31727833 12 106 C12.84933105 106.400979 12.84933105 106.400979 13.71582031 106.81005859 C16.13052807 108.06799848 18.30529074 109.49418686 20.546875 111.0390625 C21.81337891 111.90917969 21.81337891 111.90917969 23.10546875 112.796875 C23.97816406 113.40015625 24.85085938 114.0034375 25.75 114.625 C26.63816406 115.23601562 27.52632812 115.84703125 28.44140625 116.4765625 C30.62917151 117.98212139 32.8152966 119.49000309 35 121 C37.70267222 117.70261769 39.49033897 114.14272569 41.265625 110.296875 C41.576138 109.63405014 41.886651 108.97122528 42.20657349 108.28831482 C43.22540792 106.11088288 44.2377371 103.93049371 45.25 101.75 C45.95741528 100.2345812 46.66526611 98.71936566 47.37353516 97.2043457 C48.84325401 94.05924661 50.31057531 90.91304434 51.77636719 87.76611328 C53.94721797 83.10866674 56.13199552 78.45785418 58.3203125 73.80859375 C59.34329958 71.63362254 60.36617549 69.45859909 61.38903809 67.28356934 C62.04280988 65.89370733 62.69685958 64.50397602 63.35119629 63.11437988 C64.26418108 61.17456565 65.17529431 59.23388312 66.0859375 57.29296875 C66.6020459 56.1949292 67.1181543 55.09688965 67.64990234 53.96557617 C68.84732056 51.3353702 69.95430885 48.69351312 71 46 C71.33 46 71.66 46 72 46 C72.13944438 55.36243048 72.24584451 64.72449974 72.31087303 74.08774471 C72.34209472 78.43623147 72.38439705 82.78400419 72.45263672 87.13208008 C72.51816049 91.33373015 72.55377485 95.53469648 72.56926346 99.73681831 C72.5802911 101.33436398 72.60182566 102.93187512 72.63438034 104.52912712 C72.81616945 113.82385695 72.56796543 120.77823704 66 128 C65.21625 129.010625 64.4325 130.02125 63.625 131.0625 C63.08875 131.701875 62.5525 132.34125 62 133 C61.86480528 124.6460932 62.25473675 116.44374929 63 108.125 C63.18972309 105.96113126 63.37729437 103.79707256 63.5625 101.6328125 C63.68818359 100.22346436 63.68818359 100.22346436 63.81640625 98.78564453 C64.00904257 95.86279817 64 92.92918753 64 90 C58.39 110.46 52.78 130.92 47 152 C36.85919283 148.61973094 36.85919283 148.61973094 33.2734375 146.65234375 C32.47655518 146.21696289 31.67967285 145.78158203 30.85864258 145.33300781 C29.6292395 144.64223145 29.6292395 144.64223145 28.375 143.9375 C27.50834717 143.45506836 26.64169434 142.97263672 25.7487793 142.47558594 C18.57059101 138.42740239 11.41820646 134.20322767 4.81518555 129.25366211 C2.98052448 127.91383683 2.98052448 127.91383683 0.67895508 126.90454102 C-2.88511746 124.9117224 -5.33583568 122.99088365 -6.66751099 118.99908447 C-8.11264066 112.56292941 -8.50910225 106.00456595 -8.9375 99.4375 C-9.01873108 98.38864624 -9.09996216 97.33979248 -9.18365479 96.25915527 C-10.95505939 72.7126203 -8.06932116 50.15613469 -4 27 C-2.38777114 17.76148261 -2.38777114 17.76148261 -1.4375 8.4375 C-1.23466495 5.32046346 -0.99229563 2.97688689 0 0 Z " fill="#D67127" transform="translate(662,541)"/>
<path d="M0 0 C0.33 0 0.66 0 1 0 C2.05275267 6.70680944 3.03915493 13.42142015 3.99188232 20.14315796 C4.56636452 24.14793915 5.18061715 28.14300329 5.84277344 32.13427734 C9.60118308 54.84602823 11.77906715 76.78655672 10.1875 99.8125 C10.13706543 100.81309448 10.08663086 101.81368896 10.03466797 102.84460449 C9.12442267 119.26773921 9.12442267 119.26773921 4.23754883 124.31958008 C1.0739013 127.02377771 -2.35926659 128.99860743 -6 131 C-7.67391463 132.08993703 -9.34488384 133.18442271 -11.01171875 134.28515625 C-12.56415043 135.22123385 -14.12280274 136.14707229 -15.6875 137.0625 C-16.5232959 137.55782227 -17.3590918 138.05314453 -18.22021484 138.56347656 C-41.19191745 152 -41.19191745 152 -46 152 C-54.415 121.31 -54.415 121.31 -63 90 C-62.27013087 104.14196975 -62.27013087 104.14196975 -61.1875 118.19921875 C-60.85739281 123.1301949 -60.92118505 128.06092967 -61 133 C-62.3978672 131.38707631 -63.70852555 129.69930848 -65 128 C-65.5028653 127.37147125 -66.00573059 126.7429425 -66.52383423 126.09536743 C-72.11661003 118.18766504 -71.77786605 110.52522768 -71.5859375 101.2734375 C-71.57472519 99.67348839 -71.56619463 98.07351847 -71.56021118 96.47354126 C-71.53747214 92.29406291 -71.4786827 88.11586677 -71.4119873 83.93688965 C-71.3502386 79.65992572 -71.32312718 75.38275143 -71.29296875 71.10546875 C-71.22892065 62.73639547 -71.12672799 54.36835793 -71 46 C-68.34005632 48.65994368 -67.25049092 51.77536551 -65.8125 55.1875 C-65.18244791 56.65427312 -64.55090335 58.12040592 -63.91796875 59.5859375 C-63.59747559 60.32811523 -63.27698242 61.07029297 -62.94677734 61.83496094 C-60.7233942 66.91927287 -58.34105108 71.93070959 -55.96972656 76.94726562 C-54.91151504 79.18730654 -53.85810948 81.429578 -52.8046875 83.671875 C-49.34132886 91.02865363 -45.8524742 98.36620641 -42.1875 105.625 C-39.63097171 110.69049327 -37.24581729 115.78970389 -35 121 C-28.5119254 117.81464038 -22.94922468 113.81652583 -17.34301758 109.30322266 C-13.19869078 106 -13.19869078 106 -11 106 C-9.70208034 94.60865677 -8.51146045 83.21212228 -7.42468262 71.79879761 C-5.13966037 47.84575493 -2.5824262 23.92251236 0 0 Z " fill="#D67127" transform="translate(637,541)"/>
<path d="M0 0 C0 0.66 0 1.32 0 2 C-2.17922722 3.48299847 -4.36158762 4.84280794 -6.625 6.1875 C-8.08510064 7.08698122 -9.54332732 7.98950912 -11 8.89453125 C-11.79664063 9.38904785 -12.59328125 9.88356445 -13.4140625 10.39306641 C-14.69410156 11.18849854 -14.69410156 11.18849854 -16 12 C-16.93070313 12.57540527 -17.86140625 13.15081055 -18.8203125 13.74365234 C-33.74003571 22.4027447 -33.74003571 22.4027447 -42.94140625 36.28125 C-46.12389653 44.45473057 -53.7038449 49.69324178 -61 54 C-47.36265047 55.30017104 -33.15527084 50.39433181 -22.44921875 42 C-16.87138792 37.24025102 -12.69932758 32.31205399 -9 26 C-8.38125 24.989375 -7.7625 23.97875 -7.125 22.9375 C-6.568125 21.9784375 -6.568125 21.9784375 -6 21 C-4.39159783 24.21680434 -5.93748811 26.79153665 -7 30.09765625 C-12.97904559 47.45090184 -22.19384418 62.55036764 -39 71 C-55.84922317 78.35419035 -75.12004637 79.86428888 -92.83203125 74.26171875 C-103.03838353 70.1967967 -111.63423222 64.13432948 -116.21875 53.91796875 C-119.29596723 46.36340045 -119.29596723 46.36340045 -118 42 C-117.31035156 42.33773437 -116.62070312 42.67546875 -115.91015625 43.0234375 C-100.91345145 50.14121509 -86.25184855 51.04077675 -70.34765625 46.2578125 C-62.16125474 43.18194169 -56.03625307 38.12890826 -51 31 C-50.34589588 29.39028029 -49.71108396 27.77261376 -49.09375 26.1484375 C-45.72768335 19.29023428 -40.00477206 17.26620689 -33.25 14.375 C-32.0332251 13.82764224 -30.81781446 13.27724202 -29.60375977 12.72387695 C-27.19724819 11.63148822 -24.78492082 10.55836267 -22.36572266 9.49365234 C-17.84284212 7.48647237 -13.39259922 5.33964036 -8.9375 3.1875 C-2.31456612 0 -2.31456612 0 0 0 Z " fill="#D57027" transform="translate(860,643)"/>
<path d="M0 0 C4.69345879 2.08198336 9.37675872 4.18256555 14.046875 6.31640625 C18.07027936 8.15052646 22.12029375 9.89250854 26.203125 11.58984375 C44.58056921 19.4600604 44.58056921 19.4600604 48.8203125 30.046875 C49.20960938 31.02140625 49.59890625 31.9959375 50 33 C56.23481175 41.49380152 65.4030292 45.43986886 75.47265625 47.49609375 C90.10730552 49.58675793 102.62743181 46.82830959 116 41 C115.61717403 49.42217129 111.50638544 57.66391312 105.875 63.875 C94.54366756 74.04096565 79.87358212 76.22225485 65.25 76.3125 C63.95557983 76.32095947 63.95557983 76.32095947 62.63500977 76.32958984 C46.50039156 76.14780001 33.1980204 70.85092529 21.515625 59.609375 C10.97761504 48.36411605 4.81911424 35.12070367 2 20 C4.54672834 22.30773917 6.0417199 24.68359763 7.6875 27.6875 C14.73497467 39.58336019 25.88646441 46.97102599 39 51 C45.32688134 52.42577608 51.51579291 53.29473669 58 53 C57.03900391 52.38125 57.03900391 52.38125 56.05859375 51.75 C47.75599839 46.20668745 42.36565747 41.15284554 38.34765625 31.953125 C33.54167634 22.89992622 25.66075441 18.60034414 17.125 13.375 C14.82302129 11.93229189 12.52679698 10.48121064 10.23532104 9.0218811 C8.81907418 8.12343883 7.39585503 7.2358709 5.96511841 6.36068726 C1.10998513 3.32995539 1.10998513 3.32995539 0 0 Z " fill="#D57027" transform="translate(443,644)"/>
<path d="M0 0 C1.51829056 3.52752537 0.49717243 6.03106635 -0.69165039 9.53369141 C-3.50886268 17.90509996 -4.52517433 25.79985418 -4.5625 34.625 C-4.57659912 35.63143555 -4.59069824 36.63787109 -4.60522461 37.67480469 C-4.50640109 45.12572538 -2.93900801 50.36060478 1.75390625 56.171875 C9.95743664 63.33003111 17.66523328 65.26833693 28.3828125 64.8828125 C36.14800451 65.1343846 44.52288687 67.15991298 51.69921875 70.109375 C61.81635907 74.02568738 74.29810557 69.03685027 84.1875 66.03125 C89.27543366 64.5048699 92.5186286 63.93769599 97.83984375 64.91015625 C105.52976614 65.22999027 112.71105508 61.10687225 118.28125 56.171875 C123.3920334 49.71370324 124.68954358 43.89095255 124.5625 35.75 C124.55806885 34.80141113 124.5536377 33.85282227 124.54907227 32.87548828 C124.31839394 23.50389022 122.16791338 14.83932766 119.34545898 5.94091797 C118.94221581 3.67534675 119.30231412 2.17212669 120 0 C124.31713627 9.87618845 128.04752828 19.34390435 130 30 C130.30550781 31.42119141 130.30550781 31.42119141 130.6171875 32.87109375 C132.89509225 44.3698321 134.5671676 58.64325371 128 69 C125.75 71.375 125.75 71.375 123 73 C122.47019531 73.33386719 121.94039062 73.66773438 121.39453125 74.01171875 C106.67778271 82.45266834 85.65908284 82.05340782 69.5625 78.375 C60.9560615 76.46245811 52.63982952 77.12571461 44.13183594 79.52734375 C39.52442256 80.54886829 34.69838167 80.22807056 30 80.25 C28.38931641 80.2809375 28.38931641 80.2809375 26.74609375 80.3125 C14.80250537 80.3699902 3.88654056 77.94592849 -6 71 C-11.19931448 64.91299768 -12.33163797 58.57800208 -12.1875 50.75 C-12.1774292 49.99130615 -12.1673584 49.2326123 -12.15698242 48.45092773 C-12.11948809 46.29994903 -12.0630103 44.15036013 -12 42 C-11.98195313 41.10925781 -11.96390625 40.21851563 -11.9453125 39.30078125 C-11.13854886 25.70444105 -5.70780492 12.20018783 0 0 Z " fill="#CACACC" transform="translate(590,896)"/>
<path d="M0 0 C3.78821078 1.58062874 6.24884815 3.98161253 9.1875 6.8125 C25.93949566 22.52225427 45.20257095 35.33327451 66 45 C67.13695312 45.52851562 68.27390625 46.05703125 69.4453125 46.6015625 C71.95601382 47.75096285 74.47669803 48.87853246 77 50 C74.525 57.92 74.525 57.92 72 66 C67.28464337 66 64.57793899 64.41252584 60.625 62.125 C59.91819092 61.72007324 59.21138184 61.31514648 58.4831543 60.89794922 C37.16661724 48.46429621 15.32941834 31.01675485 2 10 C2 9.34 2 8.68 2 8 C-0.85061455 10.70220946 -3.02639065 13.41760296 -5.1875 16.6875 C-19.39750031 36.39729672 -39.40023081 50.86079111 -60.18554688 62.92675781 C-61.76219269 63.85933787 -63.29943682 64.85791547 -64.828125 65.8671875 C-65.54484375 66.24101563 -66.2615625 66.61484375 -67 67 C-67.99 66.67 -68.98 66.34 -70 66 C-71.04514074 63.50638252 -71.90101416 61.13580564 -72.6875 58.5625 C-72.91244141 57.86833984 -73.13738281 57.17417969 -73.36914062 56.45898438 C-75 51.33838336 -75 51.33838336 -75 49 C-74.28199219 48.75507812 -73.56398438 48.51015625 -72.82421875 48.2578125 C-45.56331854 38.41265551 -20.27107257 20.62558063 0 0 Z " fill="#D57027" transform="translate(649,670)"/>
<path d="M0 0 C5.15421007 4.34886475 10.14691044 8.81719428 15 13.5 C15.69222656 14.13808594 16.38445313 14.77617188 17.09765625 15.43359375 C21.98154691 20.18155107 21.98154691 20.18155107 22.06640625 23.9453125 C21.71449219 24.95335937 21.36257813 25.96140625 21 27 C20.66473262 28.3593016 20.3412604 29.72154702 20.02734375 31.0859375 C19.66648784 32.51623909 19.30316844 33.9459212 18.9375 35.375 C18.75123047 36.11105469 18.56496094 36.84710937 18.37304688 37.60546875 C17.91752543 39.40419444 17.4590645 41.20217529 17 43 C16.24332031 42.23042969 15.48664062 41.46085938 14.70703125 40.66796875 C12.74399082 38.73325502 10.85188851 36.99591328 8.6875 35.3125 C7.800625 34.549375 6.91375 33.78625 6 33 C6 32.34 6 31.68 6 31 C2.57233886 34.09270441 0.59248027 37.23959554 -1.5390625 41.3203125 C-1.86151443 41.93195251 -2.18396637 42.54359253 -2.51618958 43.17376709 C-3.20341804 44.47906286 -3.88738264 45.78608146 -4.56832886 47.09466553 C-5.99256873 49.83126274 -7.43281981 52.55930831 -8.87260437 55.28775024 C-9.58863123 56.64474785 -10.30389596 58.00214787 -11.01838684 59.35995483 C-14.84618279 66.62820856 -18.82680926 73.80683949 -22.85888672 80.96337891 C-24.09589459 83.17114948 -25.31633362 85.38761117 -26.53515625 87.60546875 C-27.3566986 89.09118578 -28.17831057 90.57686431 -29 92.0625 C-29.37439209 92.74876465 -29.74878418 93.4350293 -30.13452148 94.14208984 C-32.77369292 98.88684646 -32.77369292 98.88684646 -35 100 C-32.72738621 91.9454114 -29.96733431 84.07609541 -27.15841675 76.19744873 C-25.81815031 72.43806167 -24.48548968 68.6759793 -23.15234375 64.9140625 C-22.88513016 64.16057526 -22.61791656 63.40708801 -22.34260559 62.63076782 C-19.46624148 54.51099219 -16.65273741 46.36984561 -13.85498047 38.22265625 C-12.20579569 33.43137387 -10.52029268 28.66287281 -8.72143555 23.92578125 C-7.12873871 19.67427782 -5.65865036 15.37786009 -4.16210938 11.09179688 C-2.85280155 7.35909154 -1.50815246 3.65853251 0 0 Z " fill="#D37027" transform="translate(736,728)"/>
<path d="M0 0 C2.25931094 2.25931094 2.5582542 3.4636274 3.375 6.5 C4.34279045 9.88247552 5.39787748 13.12759463 6.75 16.375 C9.02390063 21.91922962 10.97730409 27.55896106 12.94042969 33.21850586 C14.8218784 38.6381941 16.7241949 44.04987395 18.65234375 49.453125 C23.93097517 64.25024645 29.11455595 79.06713327 34 94 C34.33 94.99 34.66 95.98 35 97 C30.92647625 95.64215875 30.61687121 93.92254709 28.6640625 90.1484375 C28.34826233 89.54599716 28.03246216 88.94355682 27.70709229 88.32286072 C27.02652575 87.02268304 26.35020613 85.72027542 25.67767334 84.41592407 C23.90373523 80.97661119 22.09877257 77.5536291 20.296875 74.12890625 C19.93483978 73.43893051 19.57280457 72.74895477 19.19979858 72.03807068 C15.39862527 64.81326229 11.38974172 57.71150006 7.33837891 50.62451172 C3.81347336 44.45797433 0.38053632 38.24690276 -3 32 C-8.01202555 34.98334854 -11.38748484 38.43951988 -15 43 C-17.22562707 39.6615594 -18.16602661 36.44538423 -19.1875 32.625 C-19.37763672 31.965 -19.56777344 31.305 -19.76367188 30.625 C-20.83278799 26.66414179 -21.250086 23.9077229 -20 20 C-18.05053711 17.59643555 -18.05053711 17.59643555 -15.52734375 15.13671875 C-14.62822266 14.25048828 -13.72910156 13.36425781 -12.80273438 12.45117188 C-11.85720703 11.53916016 -10.91167969 10.62714844 -9.9375 9.6875 C-8.97760179 8.74767724 -8.01860671 7.80693111 -7.06054688 6.86523438 C-4.71576088 4.56757976 -2.36215473 2.2797724 0 0 Z " fill="#D37027" transform="translate(563,728)"/>
<path d="M0 0 C1.25837677 -0.00502533 2.51675354 -0.01005066 3.81326294 -0.01522827 C4.87501834 -0.01946839 4.87501834 -0.01946839 5.95822334 -0.02379417 C10.62959813 0.03064445 15.25003226 0.767681 19.875 1.375 C20.91914062 1.50132812 21.96328125 1.62765625 23.0390625 1.7578125 C24.03421875 1.88671875 25.029375 2.015625 26.0546875 2.1484375 C26.95687012 2.26364746 27.85905273 2.37885742 28.78857422 2.49755859 C31 3 31 3 33 5 C30.8972663 6.81418338 28.79283595 8.62634029 26.6875 10.4375 C26.11193359 10.93443359 25.53636719 11.43136719 24.94335938 11.94335938 C22.18162718 14.31695624 19.41703465 16.66981277 16.56152344 18.93066406 C9.11876272 24.84277991 2.3938607 31.29866135 -4.29833984 38.03759766 C-6.12248747 39.87247269 -7.95709873 41.69639332 -9.79296875 43.51953125 C-16.65267483 50.37171642 -23.01149955 57.36386111 -29 65 C-30.01584106 66.23329572 -31.03580065 67.46322886 -32.0625 68.6875 C-32.701875 69.450625 -33.34125 70.21375 -34 71 C-34 67.22617743 -32.54878393 64.70033994 -30.87890625 61.41723633 C-30.54728485 60.75355545 -30.21566345 60.08987457 -29.87399292 59.40608215 C-28.77582633 57.21183993 -27.66921834 55.02197093 -26.5625 52.83203125 C-25.79968909 51.31200425 -25.03740742 49.79171154 -24.27563477 48.27116394 C-22.26867348 44.26869893 -20.25453109 40.26988969 -18.2388916 36.27178955 C-16.18357269 32.19183266 -14.13503863 28.10847281 -12.0859375 24.02539062 C-8.06393933 16.01357459 -4.03434955 8.00560277 0 0 Z " fill="#ED8C22" transform="translate(782,782)"/>
<path d="M0 0 C4.32930463 8.56609131 8.6500503 17.13642799 12.9598093 25.71236992 C14.96108943 29.69402009 16.96533065 33.67412169 18.97631836 37.65087891 C20.91547229 41.48585227 22.84687379 45.32463627 24.77287102 49.16623306 C25.51051702 50.63411147 26.2509865 52.1005744 26.9942646 53.56560898 C28.03167409 55.61156045 29.05909698 57.66223121 30.08422852 59.71435547 C30.67269058 60.88239716 31.26115265 62.05043884 31.8674469 63.25387573 C32.24118942 64.16009674 32.61493195 65.06631775 33 66 C32.67 66.66 32.34 67.32 32 68 C30.31129226 66.16776737 28.62402822 64.33423723 26.9375 62.5 C26.47150391 61.9946875 26.00550781 61.489375 25.52539062 60.96875 C22.91014188 58.12222075 20.34771805 55.24356169 17.83203125 52.30859375 C13.51307521 47.35792748 8.89339782 42.70733751 4.24951172 38.06420898 C2.76106763 36.57358385 1.28082723 35.07512983 -0.19921875 33.57617188 C-6.47173496 27.26684154 -13.01720344 21.52833247 -20 16 C-22.40861873 14.03596673 -24.80070334 12.05295436 -27.1875 10.0625 C-27.75791016 9.59521484 -28.32832031 9.12792969 -28.91601562 8.64648438 C-30.31567883 7.47533761 -31.66363263 6.24288539 -33 5 C-33 4.34 -33 3.68 -33 3 C-28.62561293 2.49453917 -24.25040173 1.99659468 -19.875 1.5 C-18.6375 1.35691406 -17.4 1.21382812 -16.125 1.06640625 C-14.92617188 0.93105469 -13.72734375 0.79570313 -12.4921875 0.65625 C-10.84259033 0.46772461 -10.84259033 0.46772461 -9.15966797 0.27539062 C-6.08646696 0.0075363 -3.08275401 -0.01893299 0 0 Z " fill="#ED8C22" transform="translate(518,782)"/>
<path d="M0 0 C2.20947701 0.45779645 4.41910775 0.91485169 6.62890625 1.37109375 C7.60029541 1.57532959 8.57168457 1.77956543 9.57250977 1.98999023 C12.5188351 2.57875316 15.4714714 3.08386026 18.4375 3.5625 C14.23969906 9.64207377 9.02800115 12.41173707 2.4375 15.5625 C1.39529297 16.06136719 1.39529297 16.06136719 0.33203125 16.5703125 C-10.11572048 21.00791427 -22.30735514 20.33393003 -32.7734375 16.3359375 C-39.14270592 13.33580351 -44.72751393 9.72455866 -49.5625 4.5625 C-49.5625 4.2325 -49.5625 3.9025 -49.5625 3.5625 C-48.57237915 3.39645264 -48.57237915 3.39645264 -47.56225586 3.22705078 C-44.54079863 2.7179563 -41.52040851 2.2027784 -38.5 1.6875 C-37.46166016 1.51347656 -36.42332031 1.33945312 -35.35351562 1.16015625 C-31.063875 0.42478929 -26.93033945 -0.32809134 -22.75390625 -1.5703125 C-14.99871912 -3.67759713 -7.67354587 -1.62230469 0 0 Z " fill="#C9C9CB" transform="translate(665.5625,985.4375)"/>
<path d="M0 0 C1.65 0 3.3 0 5 0 C5.21914063 0.89460937 5.43828125 1.78921875 5.6640625 2.7109375 C8.71531382 14.3453836 12.14433419 22.76288946 22.4375 29.625 C31.15541615 34.30290623 41.37774433 34.30750132 50.86328125 32.1015625 C53.09680144 31.40094771 55.31910588 30.66265199 57.5234375 29.875 C60 29 60 29 62 29 C61 32 61 32 58.55078125 33.38671875 C46.32003414 38.29967265 34.4354817 38.63456075 22 34 C12.0937865 29.38442667 5.73942491 20.06587621 1.67578125 10.1484375 C0.6124403 6.76787378 0.25674806 3.53028587 0 0 Z " fill="#E6E6E6" transform="translate(492,647)"/>
<path d="M0 0 C2.475 0.495 2.475 0.495 5 1 C3.55710071 12.46856162 -1.73758782 23.01341699 -10.734375 30.4296875 C-20.00299737 36.90240312 -31.990457 38.31872548 -43 37 C-47.54723047 35.76114076 -51.88918647 34.3274941 -56 32 C-56.33 31.01 -56.66 30.02 -57 29 C-55.39566191 29.47859241 -53.79153584 29.95789558 -52.1875 30.4375 C-51.29417969 30.70433594 -50.40085937 30.97117187 -49.48046875 31.24609375 C-47.64526945 31.80387873 -45.81966274 32.39344575 -44 33 C-32.05371692 33.65666672 -21.54497079 33.72493649 -11.84765625 25.83984375 C-4.71469235 18.73704038 -2.32634434 9.49695866 0 0 Z " fill="#EAEAEA" transform="translate(803,647)"/>
<path d="M0 0 C1.60433809 0.47859241 3.20846416 0.95789558 4.8125 1.4375 C6.15248047 1.83775391 6.15248047 1.83775391 7.51953125 2.24609375 C9.35473055 2.80387873 11.18033726 3.39344575 13 4 C14.48123547 4.0806622 15.96582204 4.10761193 17.44921875 4.09765625 C18.29677734 4.09443359 19.14433594 4.09121094 20.01757812 4.08789062 C21.33918945 4.07532227 21.33918945 4.07532227 22.6875 4.0625 C23.58017578 4.05798828 24.47285156 4.05347656 25.39257812 4.04882812 C27.59511987 4.03704983 29.79752599 4.02060164 32 4 C32.495 5.485 32.495 5.485 33 7 C21.9041546 9.5255469 11.0094564 8.66723608 1 3 C0.67 2.01 0.34 1.02 0 0 Z " fill="#D4D4D4" transform="translate(746,676)"/>
<path d="M0 0 C-1 3 -1 3 -3.44921875 4.38671875 C-12.30138776 7.94253574 -21.65705854 10.11431382 -31 7 C-31 6.34 -31 5.68 -31 5 C-29.99582031 4.97421875 -28.99164062 4.9484375 -27.95703125 4.921875 C-19.59142869 4.60849883 -12.42319953 3.61032142 -4.4765625 0.83984375 C-2 0 -2 0 0 0 Z " fill="#EAEAEA" transform="translate(554,676)"/>
<path d="M0 0 C0.99 0.66 1.98 1.32 3 2 C3.3125 4.5 3.3125 4.5 3 7 C1 9 1 9 -1.625 9.125 C-2.40875 9.08375 -3.1925 9.0425 -4 9 C-4.66 7.68 -5.32 6.36 -6 5 C-4.02 3.35 -2.04 1.7 0 0 Z " fill="#F0F0F0" transform="translate(765,654)"/>
<path d="M0 0 C3.57104439 1.87949705 5.54744301 3.17053157 7 7 C5 9 5 9 2.5 9.25 C0 9 0 9 -2 7 C-2.25 4.5 -2.25 4.5 -2 2 C-1.34 1.34 -0.68 0.68 0 0 Z " fill="#F0F0F0" transform="translate(534,654)"/>
<path d="M0 0 C1.60433809 0.47859241 3.20846416 0.95789558 4.8125 1.4375 C6.15248047 1.83775391 6.15248047 1.83775391 7.51953125 2.24609375 C9.35473055 2.80387873 11.18033726 3.39344575 13 4 C13 4.99 13 5.98 13 7 C8.14036821 6.39254603 4.2594482 4.27241033 0 2 C0 1.34 0 0.68 0 0 Z " fill="#DBDBDB" transform="translate(746,676)"/>
<path d="M0 0 C3.96 0 7.92 0 12 0 C12 0.33 12 0.66 12 1 C13.65 1.33 15.3 1.66 17 2 C17 2.33 17 2.66 17 3 C14.72923158 3.02699725 12.45837179 3.04639453 10.1875 3.0625 C8.29064453 3.07990234 8.29064453 3.07990234 6.35546875 3.09765625 C3 3 3 3 0 2 C0 1.34 0 0.68 0 0 Z " fill="#C0C0C0" transform="translate(523,681)"/>
<path d="M0 0 C0 0.66 0 1.32 0 2 C-5.14209827 6.09030544 -5.14209827 6.09030544 -8.375 5.75 C-8.91125 5.5025 -9.4475 5.255 -10 5 C-3.63636364 0 -3.63636364 0 0 0 Z " fill="#C66A24" transform="translate(860,643)"/>
<path d="M0 0 C1.39864092 3.17872935 0.89282517 4.30111022 -0.3125 7.6875 C-2 11 -2 11 -4 12 C-3.33501617 7.61110675 -1.81242323 4.0188515 0 0 Z " fill="#B6B6B7" transform="translate(590,896)"/>
<path d="M0 0 C0.33 0 0.66 0 1 0 C1.33 3.63 1.66 7.26 2 11 C1.01 10.34 0.02 9.68 -1 9 C-0.67 6.03 -0.34 3.06 0 0 Z " fill="#DF7B25" transform="translate(662,541)"/>
<path d="M0 0 C0.33 0.99 0.66 1.98 1 3 C-0.9375 6.1875 -0.9375 6.1875 -3 9 C-3.33 8.34 -3.66 7.68 -4 7 C-3.22265625 5.2734375 -3.22265625 5.2734375 -2.0625 3.375 C-1.381875 2.26125 -0.70125 1.1475 0 0 Z " fill="#C26823" transform="translate(705,819)"/>
<path d="M0 0 C-0.33 0.99 -0.66 1.98 -1 3 C-3.5625 4.1875 -3.5625 4.1875 -6 5 C-6 4.34 -6 3.68 -6 3 C-6.66 2.67 -7.32 2.34 -8 2 C-2.25 0 -2.25 0 0 0 Z " fill="#CFCFCF" transform="translate(554,676)"/>
<path d="M0 0 C0.99 0.33 1.98 0.66 3 1 C0.69 3.31 -1.62 5.62 -4 8 C-4 4.09161134 -2.49432124 2.88405893 0 0 Z " fill="#291508" transform="translate(510,432)"/>
</svg>
